<svg width="64" height="64" viewBox="0 0 64 64" fill="none" xmlns="http://www.w3.org/2000/svg">
<path d="M22 3V8H29V3C29 1.375 30.25 0 32 0C33.625 0 35 1.375 35 3V8H42V3C42 1.375 43.25 0 45 0C46.625 0 48 1.375 48 3V8C52.375 8 56 11.625 56 16H61C62.625 16 64 17.375 64 19C64 20.75 62.625 22 61 22H56V29H61C62.625 29 64 30.375 64 32C64 33.75 62.625 35 61 35H56V42H61C62.625 42 64 43.375 64 45C64 46.75 62.625 48 61 48H56C56 52.5 52.375 56 48 56V61C48 62.75 46.625 64 45 64C43.25 64 42 62.75 42 61V56H35V61C35 62.75 33.625 64 32 64C30.25 64 29 62.75 29 61V56H22V61C22 62.75 20.625 64 19 64C17.25 64 16 62.75 16 61V56C11.5 56 8 52.5 8 48H3C1.25 48 0 46.75 0 45C0 43.375 1.25 42 3 42H8V35H3C1.25 35 0 33.75 0 32C0 30.375 1.25 29 3 29H8V22H3C1.25 22 0 20.75 0 19C0 17.375 1.25 16 3 16H8C8 11.625 11.5 8 16 8V3C16 1.375 17.25 0 19 0C20.625 0 22 1.375 22 3ZM26 22C25.125 22 24.375 22.5 24.125 23.25L18.875 35.25L17.125 39.25C16.625 40.25 17.125 41.375 18.125 41.875C19.125 42.375 20.375 41.875 20.75 40.875L22 38H29.875L31.125 40.875C31.625 41.875 32.75 42.375 33.75 41.875C34.75 41.5 35.25 40.25 34.75 39.25L33 35.25L27.75 23.25C27.5 22.5 26.75 22 26 22ZM28.125 34H23.75L26 29L28.125 34ZM42 22C40.875 22 40 23 40 24V40C40 41.125 40.875 42 42 42C43 42 44 41.125 44 40V24C44 23 43 22 42 22Z" fill="#A8BAEF"/>
</svg>
