<svg width="81" height="64" viewBox="0 0 81 64" fill="none" xmlns="http://www.w3.org/2000/svg">
<path d="M49 4H65C67.125 4 69 5.875 69 8C69 10.25 67.125 12 65 12H50.75C50.125 15.25 47.875 18 45 19.25V56H65C67.125 56 69 57.875 69 60C69 62.25 67.125 64 65 64H41H17C14.75 64 13 62.25 13 60C13 57.875 14.75 56 17 56H37V19.25C34 17.875 31.75 15.25 31.125 12H17C14.75 12 13 10.25 13 8C13 5.875 14.75 4 17 4H33C34.75 1.625 37.625 0 41 0C44.25 0 47.125 1.625 49 4ZM55.875 40H74L65 24.5L55.875 40ZM65 52C57.125 52 50.5 47.75 49.25 42.25C48.875 40.875 49.375 39.375 50 38.125L61.875 17.75C62.5 16.75 63.75 16 65 16C66.125 16 67.375 16.75 68 17.75L79.875 38.125C80.625 39.375 81 40.875 80.75 42.25C79.375 47.75 72.75 52 65 52ZM16.75 24.5L7.75 40H25.875L16.75 24.5ZM1 42.25C0.75 40.875 1.125 39.375 1.875 38.125L13.75 17.75C14.375 16.75 15.625 16 16.75 16C18 16 19.25 16.75 19.875 17.75L31.75 38.125C32.375 39.375 32.875 40.875 32.5 42.25C31.25 47.75 24.625 52 16.75 52C8.875 52 2.375 47.75 1 42.25Z" fill="#A8BAEF"/>
</svg>
