<svg width="24" height="24" viewBox="0 0 24 24" fill="none" xmlns="http://www.w3.org/2000/svg">
<path d="M12 18V18.0312C10.8125 18.0312 9.71875 17.8125 8.71875 17.4688C8.375 17.7188 7.75 18.0938 7.03125 18.4062C6.28125 18.75 5.375 19.0312 4.5 19.0312C4.28125 19.0312 4.09375 18.9062 4.03125 18.7188C3.9375 18.5312 4 18.3125 4.125 18.1562C4.15625 18.1562 4.15625 18.125 4.1875 18.125C4.21875 18.0625 4.28125 18 4.34375 17.9375C4.46875 17.7812 4.625 17.5312 4.8125 17.25C5.125 16.75 5.40625 16.0625 5.46875 15.2812C4.53125 14.2188 4 12.9375 4 11.5C4 7.9375 7.5625 5 12 5C16.4062 5 20 7.9375 20 11.5C20 15.0938 16.4062 18 12 18ZM11.25 14.25C11.25 14.6875 11.5625 15 12 15C12.4062 15 12.75 14.6875 12.75 14.25V12.25H14.75C15.1562 12.25 15.5 11.9375 15.5 11.5C15.5 11.0938 15.1562 10.75 14.75 10.75H12.75V8.75C12.75 8.34375 12.4062 8 12 8C11.5625 8 11.25 8.34375 11.25 8.75V10.75H9.25C8.8125 10.75 8.5 11.0938 8.5 11.5C8.5 11.9375 8.8125 12.25 9.25 12.25H11.25V14.25Z" fill="#E6EAF2"/>
</svg>
