<svg width="20" height="20" viewBox="0 0 20 20" fill="none" xmlns="http://www.w3.org/2000/svg">
<path d="M16 10.5C16 10.5234 16 10.5469 16 10.5703C15.9766 11.4375 15.2031 12 14.3359 12H12.0625C11.4297 12 10.9375 12.5156 10.9375 13.125C10.9375 13.2188 10.9375 13.2891 10.9609 13.3594C11.0078 13.6172 11.1016 13.8281 11.1953 14.0625C11.3359 14.3906 11.4766 14.7188 11.4766 15.0469C11.4766 15.7969 10.9844 16.4766 10.2344 16.5C10.1641 16.5 10.0703 16.5 9.97656 16.5C6.67188 16.5 4 13.8281 4 10.5C4 7.19531 6.67188 4.5 10 4.5C13.3047 4.5 16 7.19531 16 10.5ZM7 11.25C7 10.8516 6.64844 10.5 6.25 10.5C5.82812 10.5 5.5 10.8516 5.5 11.25C5.5 11.6719 5.82812 12 6.25 12C6.64844 12 7 11.6719 7 11.25ZM7 9C7.39844 9 7.75 8.67188 7.75 8.25C7.75 7.85156 7.39844 7.5 7 7.5C6.57812 7.5 6.25 7.85156 6.25 8.25C6.25 8.67188 6.57812 9 7 9ZM10.75 6.75C10.75 6.35156 10.3984 6 10 6C9.57812 6 9.25 6.35156 9.25 6.75C9.25 7.17188 9.57812 7.5 10 7.5C10.3984 7.5 10.75 7.17188 10.75 6.75ZM13 9C13.3984 9 13.75 8.67188 13.75 8.25C13.75 7.85156 13.3984 7.5 13 7.5C12.5781 7.5 12.25 7.85156 12.25 8.25C12.25 8.67188 12.5781 9 13 9Z" fill="#A8BAEF"/>
</svg>
