<svg width="24" height="24" viewBox="0 0 24 24" fill="none" xmlns="http://www.w3.org/2000/svg">
<path d="M17.8594 8.39844L13.7578 12.5L17.8594 16.6406C18.3672 17.1094 18.3672 17.9297 17.8594 18.3984C17.3906 18.9062 16.5703 18.9062 16.1016 18.3984L12 14.2969L7.85938 18.3984C7.39062 18.9062 6.57031 18.9062 6.10156 18.3984C5.59375 17.9297 5.59375 17.1094 6.10156 16.6406L10.2031 12.5L6.10156 8.39844C5.59375 7.92969 5.59375 7.10938 6.10156 6.64062C6.57031 6.13281 7.39062 6.13281 7.85938 6.64062L12 10.7422L16.1016 6.64062C16.5703 6.13281 17.3906 6.13281 17.8594 6.64062C18.3672 7.10938 18.3672 7.92969 17.8594 8.39844Z" fill="#E6EAF2"/>
</svg>
