<svg width="55" height="54" viewBox="0 0 55 54" fill="none" xmlns="http://www.w3.org/2000/svg">
<path d="M14.4166 0H31.9166C33.9479 0 35.6666 1.71875 35.5885 3.82812C35.5104 4.21875 35.5104 4.60938 35.5104 5H43.7916C44.8073 5 45.6666 5.85938 45.6666 6.875C45.6666 14.1406 43.0104 19.1406 39.4948 22.5781C36.0573 25.9375 31.8385 27.6562 28.7135 28.5156C26.8385 28.9844 25.5885 30.5469 25.5885 32.1094C25.5885 33.6719 26.9166 35 28.5573 35H30.6666C31.9948 35 33.1666 36.1719 33.1666 37.5C33.1666 38.9062 31.9948 40 30.6666 40H15.6666C14.2604 40 13.1666 38.9062 13.1666 37.5C13.1666 36.1719 14.2604 35 15.6666 35H17.6979C19.3385 35 20.6666 33.6719 20.6666 32.1094C20.6666 30.5469 19.4166 28.9844 17.5416 28.5156C14.4166 27.6562 10.1979 25.9375 6.76038 22.5781C3.24475 19.1406 0.666626 14.1406 0.666626 6.875C0.666626 5.85938 1.44788 5 2.54163 5H10.7448C10.7448 4.60938 10.7448 4.21875 10.6666 3.82812C10.5885 1.71875 12.3073 0 14.4166 0ZM11.0573 8.75H4.41663C4.88538 13.9844 6.91663 17.5 9.3385 19.9219C11.1354 21.6406 13.1666 22.8125 15.1198 23.6719C13.3229 20.5469 11.7604 15.8594 11.0573 8.75ZM31.1354 23.6719C33.0885 22.8125 35.1198 21.6406 36.9166 19.9219C39.4166 17.5 41.4479 13.9844 41.8385 8.75H35.1979C34.4948 15.8594 32.9323 20.5469 31.1354 23.6719ZM23.7135 6.79688C23.4791 6.32812 22.776 6.32812 22.5416 6.79688L21.0573 9.84375C20.9791 10 20.8229 10.1562 20.5885 10.1562L17.2291 10.625C16.7604 10.7031 16.526 11.3281 16.9166 11.7188L19.3385 14.0625C19.4948 14.2188 19.5729 14.4531 19.4948 14.6094L18.9479 17.9688C18.8698 18.5156 19.4166 18.9062 19.8073 18.5938L22.8541 17.0312C23.0104 16.9531 23.2448 16.9531 23.401 17.0312L26.4479 18.6719C26.9166 18.9062 27.3854 18.5156 27.3073 17.9688L26.7604 14.6094C26.7604 14.4531 26.7604 14.2188 26.9166 14.0625L29.3385 11.7188C29.7291 11.4062 29.4948 10.7031 29.026 10.7031L25.6666 10.1562C25.4323 10.1562 25.276 10 25.1979 9.84375L23.7135 6.79688Z" fill="#A8BAEF"/>
<mask id="path-2-outside-1_4695_29393" maskUnits="userSpaceOnUse" x="26.6666" y="26" width="28" height="28" fill="black">
<rect fill="white" x="26.6666" y="26" width="28" height="28"/>
<path d="M40.6666 28C42.3541 28 43.8541 28.9844 44.6041 30.4375C46.151 29.9219 47.9323 30.2969 49.151 31.5156C50.3698 32.7344 50.7448 34.5156 50.2291 36.0625C51.6823 36.8125 52.6666 38.3125 52.6666 40C52.6666 41.7344 51.6823 43.2344 50.2291 43.9844C50.7448 45.5312 50.3698 47.2656 49.151 48.4844C47.9323 49.7031 46.151 50.0781 44.6041 49.6094C43.8541 51.0625 42.3541 52 40.6666 52C38.9323 52 37.4323 51.0625 36.6823 49.6094C35.1354 50.0781 33.401 49.7031 32.1823 48.4844C30.9635 47.2656 30.5885 45.5312 31.0573 43.9844C29.6041 43.2344 28.6666 41.7344 28.6666 40C28.6666 38.3125 29.6041 36.8125 31.0573 36.0625C30.5885 34.5156 30.9635 32.7344 32.1823 31.5156C33.401 30.2969 35.1354 29.9219 36.6823 30.4375C37.4323 28.9844 38.9323 28 40.6666 28ZM45.9635 37.7969C46.3854 37.375 46.3854 36.6719 45.9635 36.25C45.4948 35.7812 44.7916 35.7812 44.3698 36.25L39.1666 41.4531L36.9635 39.25C36.4948 38.7812 35.7916 38.7812 35.3698 39.25C34.901 39.6719 34.901 40.375 35.3698 40.7969L38.3698 43.7969C38.7916 44.2656 39.4948 44.2656 39.9635 43.7969L45.9635 37.7969Z"/>
</mask>
<path d="M40.6666 28C42.3541 28 43.8541 28.9844 44.6041 30.4375C46.151 29.9219 47.9323 30.2969 49.151 31.5156C50.3698 32.7344 50.7448 34.5156 50.2291 36.0625C51.6823 36.8125 52.6666 38.3125 52.6666 40C52.6666 41.7344 51.6823 43.2344 50.2291 43.9844C50.7448 45.5312 50.3698 47.2656 49.151 48.4844C47.9323 49.7031 46.151 50.0781 44.6041 49.6094C43.8541 51.0625 42.3541 52 40.6666 52C38.9323 52 37.4323 51.0625 36.6823 49.6094C35.1354 50.0781 33.401 49.7031 32.1823 48.4844C30.9635 47.2656 30.5885 45.5312 31.0573 43.9844C29.6041 43.2344 28.6666 41.7344 28.6666 40C28.6666 38.3125 29.6041 36.8125 31.0573 36.0625C30.5885 34.5156 30.9635 32.7344 32.1823 31.5156C33.401 30.2969 35.1354 29.9219 36.6823 30.4375C37.4323 28.9844 38.9323 28 40.6666 28ZM45.9635 37.7969C46.3854 37.375 46.3854 36.6719 45.9635 36.25C45.4948 35.7812 44.7916 35.7812 44.3698 36.25L39.1666 41.4531L36.9635 39.25C36.4948 38.7812 35.7916 38.7812 35.3698 39.25C34.901 39.6719 34.901 40.375 35.3698 40.7969L38.3698 43.7969C38.7916 44.2656 39.4948 44.2656 39.9635 43.7969L45.9635 37.7969Z" fill="#1C2024"/>
<path d="M44.6041 30.4375L42.8269 31.3548L43.6122 32.8763L45.2366 32.3349L44.6041 30.4375ZM50.2291 36.0625L48.3318 35.43L47.7903 37.0544L49.3118 37.8397L50.2291 36.0625ZM50.2291 43.9844L49.3118 42.2071L47.7903 42.9924L48.3318 44.6168L50.2291 43.9844ZM44.6041 49.6094L45.1841 47.6953L43.5906 47.2124L42.8269 48.6921L44.6041 49.6094ZM36.6823 49.6094L38.4595 48.6921L37.6958 47.2124L36.1022 47.6953L36.6823 49.6094ZM31.0573 43.9844L32.9713 44.5644L33.4542 42.9708L31.9745 42.2071L31.0573 43.9844ZM31.0573 36.0625L31.9745 37.8397L33.4542 37.076L32.9713 35.4825L31.0573 36.0625ZM36.6823 30.4375L36.0498 32.3349L37.6742 32.8763L38.4595 31.3548L36.6823 30.4375ZM44.3698 36.25L45.784 37.6642L45.8212 37.627L45.8563 37.5879L44.3698 36.25ZM39.1666 41.4531L37.7524 42.8673L39.1666 44.2816L40.5808 42.8673L39.1666 41.4531ZM35.3698 39.25L36.7077 40.7366L36.7859 40.6662L36.8563 40.5879L35.3698 39.25ZM35.3698 40.7969L36.784 39.3827L36.7468 39.3455L36.7077 39.3103L35.3698 40.7969ZM38.3698 43.7969L39.8563 42.4589L39.8212 42.4199L39.784 42.3827L38.3698 43.7969ZM40.6666 30C41.561 30 42.399 30.5258 42.8269 31.3548L46.3814 29.5202C45.3092 27.4429 43.1473 26 40.6666 26V30ZM45.2366 32.3349C46.083 32.0527 47.0672 32.2602 47.7368 32.9298L50.5652 30.1014C48.7973 28.3335 46.219 27.791 43.9717 28.5401L45.2366 32.3349ZM47.7368 32.9298C48.4064 33.5995 48.6139 34.5836 48.3318 35.43L52.1265 36.695C52.8756 34.4477 52.3331 31.8693 50.5652 30.1014L47.7368 32.9298ZM49.3118 37.8397C50.1408 38.2676 50.6666 39.1056 50.6666 40H54.6666C54.6666 37.5194 53.2237 35.3574 51.1464 34.2853L49.3118 37.8397ZM50.6666 40C50.6666 40.953 50.1299 41.7849 49.3118 42.2071L51.1464 45.7616C53.2347 44.6838 54.6666 42.5157 54.6666 40H50.6666ZM48.3318 44.6168C48.6106 45.4535 48.4136 46.3933 47.7368 47.0702L50.5652 49.8986C52.3259 48.1379 52.8789 45.609 52.1265 43.3519L48.3318 44.6168ZM47.7368 47.0702C47.0676 47.7393 46.0636 47.9618 45.1841 47.6953L44.0241 51.5234C46.2384 52.1944 48.7969 51.6669 50.5652 49.8986L47.7368 47.0702ZM42.8269 48.6921C42.4171 49.486 41.5993 50 40.6666 50V54C43.1089 54 45.2911 52.639 46.3814 50.5267L42.8269 48.6921ZM40.6666 50C39.6751 50 38.8638 49.4754 38.4595 48.6921L34.905 50.5267C36.0007 52.6496 38.1894 54 40.6666 54V50ZM36.1022 47.6953C35.233 47.9587 34.2729 47.7466 33.5965 47.0702L30.768 49.8986C32.5291 51.6597 35.0377 52.1975 37.2623 51.5234L36.1022 47.6953ZM33.5965 47.0702C32.92 46.3937 32.7079 45.4336 32.9713 44.5644L29.1432 43.4044C28.4691 45.6289 29.007 48.1375 30.768 49.8986L33.5965 47.0702ZM31.9745 42.2071C31.1912 41.8028 30.6666 40.9915 30.6666 40H26.6666C26.6666 42.4773 28.0171 44.6659 30.14 45.7616L31.9745 42.2071ZM30.6666 40C30.6666 39.0673 31.1806 38.2495 31.9745 37.8397L30.14 34.2853C28.0277 35.3755 26.6666 37.5577 26.6666 40H30.6666ZM32.9713 35.4825C32.7048 34.6031 32.9273 33.599 33.5965 32.9298L30.768 30.1014C28.9997 31.8698 28.4722 34.4282 29.1432 36.6425L32.9713 35.4825ZM33.5965 32.9298C34.2733 32.253 35.2132 32.056 36.0498 32.3349L37.3147 28.5401C35.0576 27.7878 32.5287 28.3407 30.768 30.1014L33.5965 32.9298ZM38.4595 31.3548C38.8817 30.5368 39.7136 30 40.6666 30V26C38.1509 26 35.9828 27.432 34.905 29.5202L38.4595 31.3548ZM47.3777 39.2111C48.5806 38.0082 48.5806 36.0387 47.3777 34.8358L44.5493 37.6642C44.1901 37.305 44.1901 36.7418 44.5493 36.3827L47.3777 39.2111ZM47.3777 34.8358C46.1716 33.6297 44.1389 33.5168 42.8832 34.9121L45.8563 37.5879C45.6825 37.7811 45.4207 37.8984 45.149 37.8984C44.8837 37.8984 44.6741 37.789 44.5493 37.6642L47.3777 34.8358ZM42.9555 34.8358L37.7524 40.0389L40.5808 42.8673L45.784 37.6642L42.9555 34.8358ZM40.5808 40.0389L38.3777 37.8358L35.5493 40.6642L37.7524 42.8673L40.5808 40.0389ZM38.3777 37.8358C37.1716 36.6297 35.1389 36.5168 33.8832 37.9121L36.8563 40.5879C36.6825 40.7811 36.4207 40.8984 36.149 40.8984C35.8837 40.8984 35.6741 40.789 35.5493 40.6642L38.3777 37.8358ZM34.0318 37.7634C32.6803 38.9798 32.6803 41.0671 34.0318 42.2835L36.7077 39.3103C37.1217 39.6829 37.1217 40.364 36.7077 40.7366L34.0318 37.7634ZM33.9555 42.2111L36.9555 45.2111L39.784 42.3827L36.784 39.3827L33.9555 42.2111ZM36.8832 45.1348C38.1389 46.53 40.1716 46.4172 41.3777 45.2111L38.5493 42.3827C38.6741 42.2579 38.8837 42.1484 39.149 42.1484C39.4207 42.1484 39.6825 42.2658 39.8563 42.4589L36.8832 45.1348ZM41.3777 45.2111L47.3777 39.2111L44.5493 36.3827L38.5493 42.3827L41.3777 45.2111Z" fill="#E6EAF2" mask="url(#path-2-outside-1_4695_29393)"/>
</svg>
