<svg width="24" height="24" viewBox="0 0 24 24" fill="none" xmlns="http://www.w3.org/2000/svg">
<path d="M19 6.5V8C19 9.40625 15.8438 10.5 12 10.5C8.125 10.5 5 9.40625 5 8V6.5C5 5.125 8.125 4 12 4C15.8438 4 19 5.125 19 6.5ZM17.2812 10.7188C17.9375 10.5 18.5312 10.1875 19 9.84375V13C19 14.4062 15.8438 15.5 12 15.5C8.125 15.5 5 14.4062 5 13V9.84375C5.4375 10.1875 6.0625 10.5 6.6875 10.7188C8.09375 11.2188 9.96875 11.5 12 11.5C14 11.5 15.875 11.2188 17.2812 10.7188ZM5 14.8438C5.4375 15.1875 6.0625 15.5 6.6875 15.7188C8.09375 16.2188 9.96875 16.5 12 16.5C14 16.5 15.875 16.2188 17.2812 15.7188C17.9375 15.5 18.5312 15.1875 19 14.8438V17.5C19 18.9062 15.8438 20 12 20C8.125 20 5 18.9062 5 17.5V14.8438Z" fill="#E6EAF2"/>
</svg>
