<svg width="16" height="16" viewBox="0 0 16 16" fill="none" xmlns="http://www.w3.org/2000/svg">
<path d="M1.875 1.625V3.375H7.125V5.125H1.875V11.25H7.125V13H1.875C0.890625 13 0.125 12.2344 0.125 11.25V4.25V1.625C0.125 1.16016 0.507812 0.75 1 0.75C1.46484 0.75 1.875 1.16016 1.875 1.625ZM8 6V1.625C8 1.16016 8.38281 0.75 8.875 0.75H10.6797C10.9258 0.75 11.1445 0.859375 11.3086 1.02344L11.6641 1.37891C11.8281 1.54297 12.0469 1.625 12.293 1.625H15C15.4648 1.625 15.875 2.03516 15.875 2.5V6C15.875 6.49219 15.4648 6.875 15 6.875H8.875C8.38281 6.875 8 6.49219 8 6ZM8 13.875V9.5C8 9.03516 8.38281 8.625 8.875 8.625H10.6797C10.9258 8.625 11.1445 8.73438 11.3086 8.89844L11.6641 9.25391C11.8281 9.41797 12.0469 9.5 12.293 9.5H15C15.4648 9.5 15.875 9.91016 15.875 10.375V13.875C15.875 14.3672 15.4648 14.75 15 14.75H8.875C8.38281 14.75 8 14.3672 8 13.875Z" fill="#A8BAEF"/>
</svg>
