<svg width="20" height="20" viewBox="0 0 20 20" fill="none" xmlns="http://www.w3.org/2000/svg">
<path d="M15.5781 4.66406C17.3828 7.34375 18.2852 10.3516 17.957 13.8242C17.957 13.8242 17.957 13.8516 17.9297 13.8516C16.7266 14.7539 15.3594 15.4375 13.9102 15.875C13.8828 15.9023 13.8828 15.875 13.8555 15.875C13.5547 15.4375 13.2812 15 13.0352 14.5352C13.0352 14.5078 13.0352 14.4805 13.0625 14.4531C13.5 14.2891 13.9102 14.0977 14.3203 13.8516C14.3477 13.8516 14.3477 13.7969 14.3203 13.7695C14.2383 13.7148 14.1562 13.6602 14.0742 13.5781C14.0469 13.5781 14.0469 13.5781 14.0195 13.5781C11.4219 14.7812 8.57812 14.7812 5.95312 13.5781C5.92578 13.5781 5.89844 13.5781 5.89844 13.5781C5.81641 13.6602 5.73438 13.7148 5.65234 13.7695C5.59766 13.7969 5.625 13.8516 5.65234 13.8516C6.03516 14.0977 6.47266 14.2891 6.91016 14.4531C6.9375 14.4805 6.9375 14.5078 6.9375 14.5352C6.69141 15 6.41797 15.4375 6.11719 15.875C6.08984 15.875 6.0625 15.9023 6.0625 15.875C4.61328 15.4375 3.24609 14.7539 2.04297 13.8516C2.01562 13.8516 2.01562 13.8242 2.01562 13.8242C1.74219 10.8164 2.31641 7.78125 4.39453 4.66406C4.39453 4.66406 4.39453 4.66406 4.42188 4.66406C5.46094 4.17188 6.55469 3.84375 7.67578 3.65234C7.70312 3.625 7.73047 3.65234 7.73047 3.65234C7.89453 3.92578 8.03125 4.22656 8.14062 4.5C9.37109 4.30859 10.6016 4.30859 11.832 4.5C11.9414 4.22656 12.0781 3.92578 12.2422 3.65234C12.2422 3.65234 12.2695 3.625 12.2969 3.65234C13.418 3.84375 14.5117 4.17188 15.5508 4.66406C15.5781 4.66406 15.5781 4.66406 15.5781 4.66406ZM7.32031 11.9922C8.11328 11.9922 8.76953 11.2539 8.76953 10.3789C8.76953 9.47656 8.14062 8.76562 7.32031 8.76562C6.52734 8.76562 5.87109 9.47656 5.87109 10.3789C5.87109 11.2539 6.52734 11.9922 7.32031 11.9922ZM12.6523 11.9922C13.4727 11.9922 14.1016 11.2539 14.1016 10.3789C14.1289 9.47656 13.4727 8.76562 12.6523 8.76562C11.8594 8.76562 11.2305 9.47656 11.2305 10.3789C11.2305 11.2539 11.8594 11.9922 12.6523 11.9922Z" fill="#A8BAEF"/>
</svg>
