<svg width="11" height="13" viewBox="0 0 11 13" fill="none" xmlns="http://www.w3.org/2000/svg">
<path d="M1.3584 12.875C0.866211 12.875 0.483398 12.4922 0.483398 12C0.483398 11.5352 0.866211 11.125 1.3584 11.125H10.1084C10.5732 11.125 10.9834 11.5352 10.9834 12C10.9834 12.4922 10.5732 12.875 10.1084 12.875H1.3584ZM6.33496 9.12891C6.00684 9.48438 5.43262 9.48438 5.10449 9.12891L1.60449 5.62891C1.24902 5.30078 1.24902 4.72656 1.60449 4.39844C1.93262 4.04297 2.50684 4.04297 2.83496 4.39844L4.8584 6.39453V1.5C4.8584 1.03516 5.24121 0.625 5.7334 0.625C6.19824 0.625 6.6084 1.03516 6.6084 1.5V6.39453L8.60449 4.39844C8.93262 4.04297 9.50684 4.04297 9.83496 4.39844C10.1904 4.72656 10.1904 5.30078 9.83496 5.62891L6.33496 9.12891Z" fill="#E6EAF2"/>
</svg>
