<svg width="185" height="200" viewBox="0 0 185 200" fill="none" xmlns="http://www.w3.org/2000/svg">
<g id="box">
<g id="Box">
<g id="box_2">
<path id="Vector" d="M177.899 156.5L102.564 200L17.7305 150.903L93.0657 107.414L177.899 156.5Z" fill="#1C2A45"/>
<path id="Vector_2" opacity="0.5" d="M177.899 156.5L102.564 200L17.7305 150.903L93.0657 107.414L177.899 156.5Z" fill="black"/>
<path id="Vector_3" d="M93.0657 48.4509V107.414L17.7305 150.903V91.9505L93.0657 48.4509Z" fill="#1C2A45"/>
<path id="Vector_4" opacity="0.23" d="M93.0657 48.4509V107.414L17.7305 150.903V91.9505L93.0657 48.4509Z" fill="black"/>
<path id="Vector_5" d="M102.564 141.037V200L17.7305 150.903V91.9508L102.564 141.037Z" fill="#1C2A45"/>
<path id="Vector_6" opacity="0.38" d="M102.564 141.037V200L17.7305 150.903V91.9508L102.564 141.037Z" fill="black"/>
<path id="Vector_7" d="M177.899 97.5373V156.5L93.0654 107.414V48.4509L177.899 97.5373Z" fill="#1C2A45"/>
<path id="Vector_8" opacity="0.4" d="M177.899 97.5373V156.5L93.0654 107.414V48.4509L177.899 97.5373Z" fill="black"/>
<path id="Vector_9" d="M177.9 156.5V97.5371L102.564 141.037V200L177.9 156.5Z" fill="#1C2A45"/>
<path id="Vector_10" opacity="0.23" d="M177.9 156.5V97.5371L102.564 141.037V200L177.9 156.5Z" fill="black"/>
<path id="Vector_11" d="M93.0654 48.451L93.1676 15.8085L177.797 64.9561L177.899 97.5374L93.0654 48.451Z" fill="#1C2A45"/>
<path id="Vector_12" opacity="0.2" d="M93.0654 48.451L93.1676 15.8085L177.797 64.9561L177.899 97.5374L93.0654 48.451Z" fill="black"/>
<path id="Vector_13" d="M102.564 141.037L109.632 112.48L184.283 69.3789L177.9 97.5377L102.564 141.037Z" fill="#1C2A45"/>
<path id="Vector_14" opacity="0.3" d="M102.564 141.037L109.632 112.48L184.283 69.3789L177.9 97.5377L102.564 141.037Z" fill="black"/>
<path id="Vector_15" d="M17.7301 91.9506L8.74219 62.3313L84.0774 18.842L93.0653 48.4511L17.7301 91.9506Z" fill="#1C2A45"/>
<path id="Vector_16" opacity="0.1" d="M17.7301 91.9506L8.74219 62.3313L84.0774 18.842L93.0653 48.4511L17.7301 91.9506Z" fill="black"/>
<path id="Vector_17" d="M17.7307 91.9506L0 67.4687L84.844 116.555L102.565 141.037L17.7307 91.9506Z" fill="#1C2A45"/>
<path id="Vector_18" opacity="0.45" d="M17.7307 91.9506L0 67.4687L84.844 116.555L102.565 141.037L17.7307 91.9506Z" fill="black"/>
<g id="Group" opacity="0.7">
<path id="Vector_19" d="M124.748 182.463C124.625 182.463 124.507 182.415 124.419 182.329C124.332 182.243 124.281 182.126 124.278 182.003V171.626C124.281 171.503 124.331 171.385 124.419 171.297C124.506 171.21 124.624 171.159 124.748 171.157C124.871 171.159 124.988 171.21 125.074 171.298C125.16 171.386 125.208 171.504 125.208 171.626V182.003C125.208 182.125 125.159 182.242 125.073 182.328C124.987 182.415 124.87 182.463 124.748 182.463Z" fill="white"/>
<path id="Vector_20" d="M123.39 175.222C123.329 175.231 123.267 175.231 123.206 175.222C123.094 175.17 123.007 175.078 122.961 174.964C122.915 174.85 122.915 174.723 122.961 174.609L124.615 170.799L126.454 172.924C126.519 173.019 126.548 173.135 126.533 173.25C126.519 173.364 126.463 173.47 126.375 173.546C126.288 173.621 126.176 173.663 126.06 173.661C125.945 173.659 125.834 173.615 125.749 173.537L124.881 172.515L123.859 174.966C123.815 175.051 123.747 175.12 123.663 175.166C123.58 175.211 123.484 175.231 123.39 175.222Z" fill="white"/>
<path id="Vector_21" d="M129.027 180.023C128.904 180.02 128.787 179.969 128.701 179.881C128.615 179.794 128.567 179.676 128.567 179.553V169.186C128.567 169.064 128.616 168.947 128.702 168.861C128.788 168.775 128.905 168.726 129.027 168.726C129.149 168.726 129.266 168.775 129.352 168.861C129.438 168.947 129.487 169.064 129.487 169.186V179.543C129.488 179.604 129.477 179.666 129.455 179.723C129.432 179.781 129.399 179.833 129.356 179.878C129.314 179.922 129.263 179.958 129.206 179.983C129.15 180.008 129.089 180.021 129.027 180.023Z" fill="white"/>
<path id="Vector_22" d="M127.668 172.781C127.608 172.791 127.545 172.791 127.485 172.781C127.429 172.757 127.378 172.722 127.336 172.677C127.293 172.633 127.26 172.581 127.238 172.524C127.217 172.467 127.206 172.406 127.208 172.345C127.21 172.284 127.224 172.224 127.25 172.168L128.894 168.308L130.733 170.422C130.817 170.509 130.865 170.627 130.865 170.749C130.865 170.871 130.817 170.988 130.733 171.075C130.69 171.119 130.639 171.153 130.583 171.176C130.527 171.2 130.466 171.212 130.406 171.212C130.345 171.212 130.285 171.2 130.229 171.176C130.172 171.153 130.122 171.119 130.079 171.075L129.211 170.054L128.189 172.505C128.147 172.604 128.072 172.685 127.977 172.735C127.883 172.785 127.774 172.802 127.668 172.781Z" fill="white"/>
</g>
<g id="Group_2" opacity="0.7">
<path id="Vector_23" d="M112.4 189.5C112.225 189.503 112.053 189.46 111.899 189.378C111.715 189.259 111.565 189.094 111.466 188.898C111.368 188.702 111.323 188.483 111.338 188.264V186.988C111.34 186.865 111.391 186.748 111.479 186.662C111.567 186.576 111.685 186.528 111.807 186.528C111.929 186.528 112.046 186.576 112.132 186.663C112.219 186.749 112.267 186.866 112.267 186.988V188.264C112.267 188.448 112.267 188.55 112.359 188.571C112.451 188.591 112.502 188.571 112.655 188.489C112.943 188.223 113.169 187.899 113.319 187.537C113.469 187.176 113.539 186.786 113.523 186.395V181.084C113.523 180.962 113.572 180.845 113.658 180.759C113.744 180.673 113.861 180.625 113.983 180.625C114.105 180.625 114.222 180.673 114.308 180.759C114.394 180.845 114.443 180.962 114.443 181.084V186.395C114.465 186.947 114.358 187.496 114.129 187.998C113.9 188.5 113.556 188.941 113.125 189.286C112.907 189.42 112.656 189.494 112.4 189.5Z" fill="white"/>
<path id="Vector_24" d="M107.528 185.221V184.424C107.65 182.379 108.248 180.39 109.274 178.616C110.301 176.843 111.728 175.334 113.442 174.211C115.117 173.251 116.71 173.108 117.936 173.822C118.59 174.271 119.111 174.886 119.445 175.605C119.779 176.324 119.914 177.119 119.836 177.908V178.173L107.528 185.221ZM116.22 174.251C115.402 174.289 114.608 174.535 113.912 174.966C112.443 175.933 111.2 177.203 110.266 178.693C109.332 180.182 108.729 181.854 108.499 183.597L118.886 177.591C118.93 177 118.821 176.407 118.569 175.87C118.316 175.333 117.929 174.871 117.446 174.527C117.068 174.329 116.646 174.234 116.22 174.251Z" fill="white"/>
</g>
<path id="Vector_25" opacity="0.7" d="M0 67.4687L84.844 116.555L102.565 141.037L83.9044 117.423L0 67.4687Z" fill="white"/>
<path id="Vector_26" opacity="0.7" d="M177.9 97.5371L102.564 141.037V200L103.974 142.221L177.9 97.5371Z" fill="white"/>
</g>
</g>
<g id="Moth">
<g id="moth">
<g id="Group 427320124">
<path id="Vector_27" d="M68.2632 97.146C76.0358 96.0225 83.1342 91.0179 87.669 84.7263C89.7838 81.7867 91.3416 78.4842 92.2651 74.9826C93.2459 71.7082 93.4072 68.243 92.7349 64.8916C91.3357 59.2844 86.1472 55.965 80.6625 55.2704C77.8794 54.9043 75.0494 55.1803 72.3895 56.0773C69.6315 57.0238 67.2387 58.8095 65.5464 61.1841C64.4854 62.4492 63.8179 63.9972 63.6263 65.6372C63.61 66.2795 63.8364 66.9044 64.2605 67.3872C64.6846 67.8699 65.275 68.175 65.9141 68.2417C67.5587 68.3802 69.2023 67.963 70.5817 67.0569C72.2638 66.1136 73.7453 64.8507 74.9429 63.3391C77.5119 60.1686 79.4343 56.5252 80.6012 52.6149C81.42 49.2596 81.42 45.7566 80.6012 42.4014C79.9792 38.8915 78.3749 35.6298 75.9745 32.9947C73.2226 30.4921 69.7305 28.954 66.0265 28.6131C62.3401 28.1066 58.5866 28.4561 55.0571 29.6344C53.5068 30.1044 52.0706 30.8903 50.8389 31.9427C49.9606 32.7598 48.9596 34.1079 49.3171 35.4357C49.6746 36.7635 51.6151 37.3559 52.9327 37.1822C54.8827 36.8168 56.6688 35.8487 58.0395 34.4143C59.567 32.9106 60.8645 31.1898 61.89 29.3076C62.6519 27.9548 63.0496 26.4274 63.0441 24.8749C62.9113 18.3995 55.7516 14.2119 50.1444 13.0272C48.6307 12.7109 47.0803 12.6078 45.5381 12.7208C45.0172 12.7208 45.3338 13.5787 45.7526 13.5481C48.7699 13.4109 51.7686 14.0883 54.4341 15.5091C57.0638 16.7177 59.2725 18.6845 60.7767 21.1572C61.4471 22.3762 61.778 23.7528 61.7348 25.1433C61.6917 26.5338 61.2762 27.8873 60.5316 29.0625C59.5315 30.8043 58.2863 32.3934 56.8343 33.7811C55.6189 34.8842 53.7702 36.1609 52.0645 36.0383C51.7829 36.0377 51.5072 35.9578 51.2688 35.8079C51.0304 35.658 50.839 35.4441 50.7164 35.1906C50.6649 34.8552 50.6926 34.5124 50.7972 34.1897C50.9018 33.8669 51.0805 33.5731 51.3189 33.3317C52.2209 32.3604 53.3363 31.6121 54.5771 31.146C57.6412 29.8723 60.9591 29.3269 64.2697 29.5527C67.6816 29.6145 70.9996 30.6802 73.8092 32.6168C76.2568 34.649 77.9951 37.4067 78.773 40.4914C79.7584 43.6251 80.0648 46.9329 79.6718 50.1943C79.0652 53.4761 77.8044 56.6022 75.9643 59.3865C74.0748 62.5118 71.7052 65.5146 68.1509 66.7403C67.2725 67.0569 65.4341 67.5165 65.0868 66.2398C64.7396 64.9631 65.7405 63.3902 66.3839 62.3995C67.8068 60.1601 69.8812 58.4101 72.3282 57.3846C74.6895 56.4382 77.2385 56.0536 79.7739 56.2611C84.5845 56.6186 89.4666 59.1311 91.1416 63.9111C91.9818 66.7678 92.0733 69.7925 91.4072 72.6948C90.8063 75.8759 89.6627 78.9301 88.0265 81.7235C84.5069 87.659 79.1765 92.3092 72.8185 94.991C71.3069 95.6446 69.7544 96.1962 68.1713 96.7068C68.0079 96.7681 68.0794 97.1767 68.2632 97.146Z" fill="#E0E0E0"/>
<g id="Group 427320125">
<path id="Vector_28" d="M29.5671 12.3358C23.6182 11.9045 15.4235 16.5893 18.3385 20.01C21.2535 23.4306 28.9871 17.8981 28.9871 17.8981C28.9871 17.8981 28.2584 24.8137 30.7867 25.602C33.315 26.3902 36.7356 19.7869 34.2073 15.5631C35.4266 16.0438 36.7476 16.2086 38.0476 16.0422C39.3477 15.8758 40.5846 15.3836 41.6435 14.6113C45.2426 11.964 41.4353 9.46547 36.3638 9.91164C36.3638 9.91164 39.9927 -1.98623 32.6606 0.289234C28.9871 1.40466 27.6932 5.70278 29.5671 12.3358Z" fill="#1C2A45"/>
<path id="Vector_29" opacity="0.65" d="M29.5671 12.3358C23.6182 11.9045 15.4235 16.5893 18.3385 20.01C21.2535 23.4306 28.9871 17.8981 28.9871 17.8981C28.9871 17.8981 28.2584 24.8137 30.7867 25.602C33.315 26.3902 36.7356 19.7869 34.2073 15.5631C35.4266 16.0438 36.7476 16.2086 38.0476 16.0422C39.3477 15.8758 40.5846 15.3836 41.6435 14.6113C45.2426 11.964 41.4353 9.46547 36.3638 9.91164C36.3638 9.91164 39.9927 -1.98623 32.6606 0.289234C28.9871 1.40466 27.6932 5.70278 29.5671 12.3358Z" fill="white"/>
<path id="Vector 181 (Stroke)" fill-rule="evenodd" clip-rule="evenodd" d="M27.5666 11.2299C27.7504 10.7091 28.2817 10.8164 28.807 10.9199C29.7152 11.0989 31.1748 11.6538 32.5311 12.5179C33.8805 13.3776 35.067 14.7309 36.0481 16.1755C36.3584 16.6323 36.2584 17.0673 35.9611 17.3647C35.6638 17.662 35.0125 17.6065 34.3936 17.2992C33.0275 16.6212 32.2486 16.1086 31.0157 15.3231C29.7896 14.5419 28.548 13.1128 28.1715 12.657C27.795 12.2011 27.3829 11.7507 27.5666 11.2299Z" fill="#2C438F"/>
</g>
</g>
</g>
</g>
</g>
</svg>
