<svg width="16" height="16" viewBox="0 0 16 16" fill="none" xmlns="http://www.w3.org/2000/svg">
<g clip-path="url(#clip0_4414_1380)">
<path d="M5.62965 14.7081V11.437L3.18817 13.2385C3.87558 13.8785 4.70521 14.3763 5.62965 14.7081Z" fill="#2A5F9E"/>
<path d="M10.3704 14.7081C11.2948 14.3763 12.1244 13.8785 12.8118 13.2385L10.3704 11.4133V14.7081Z" fill="#2A5F9E"/>
<path d="M1.29187 10.3704C1.36298 10.6074 1.4578 10.8207 1.57631 11.0578L2.50076 10.3704H1.29187Z" fill="#2A5F9E"/>
<path d="M13.4993 10.3704L14.4237 11.0578C14.5185 10.8444 14.6133 10.6074 14.7082 10.3704H13.4993Z" fill="#2A5F9E"/>
<path d="M5.9852 9.42224H1.03113C1.10224 9.75409 1.19705 10.0622 1.29187 10.3704H2.50076L1.57631 11.0578C1.76594 11.4608 1.97928 11.8163 2.24002 12.1719L4.6815 10.3704H5.62965V10.8445L2.85631 12.883L3.18816 13.2148L5.62965 11.4371V14.7082C5.93779 14.8267 6.24594 14.8978 6.57779 14.9689V9.42224H5.9852Z" fill="white"/>
<path d="M14.9689 9.42224H9.42224V14.9689C9.75409 14.8978 10.0622 14.803 10.3704 14.7082V11.4371L12.8119 13.2148C13.1437 12.9067 13.4282 12.5748 13.7126 12.2193L11.1763 10.3704H12.7882L14.2341 11.4371C14.3052 11.3185 14.3763 11.1763 14.4237 11.0578L13.4993 10.3704H14.7082C14.803 10.0622 14.8978 9.75409 14.9689 9.42224Z" fill="white"/>
<path d="M2.24005 12.1718C2.42968 12.4326 2.61931 12.6696 2.83264 12.9066L5.62968 10.8681V10.394H4.68153L2.24005 12.1718Z" fill="#ED4C5C"/>
<path d="M11.2001 10.3704L13.7364 12.2192C13.8312 12.1007 13.9023 11.9822 13.9971 11.8637C14.0208 11.84 14.0208 11.8163 14.0445 11.8163C14.1156 11.6978 14.2104 11.5555 14.2816 11.437L12.7882 10.3704H11.2001Z" fill="#ED4C5C"/>
<path d="M10.3704 1.29187V4.56298L12.8118 2.7615C12.1244 2.1215 11.2948 1.62372 10.3704 1.29187Z" fill="#2A5F9E"/>
<path d="M5.62965 1.29187C4.70521 1.62372 3.87558 2.1215 3.18817 2.7615L5.62965 4.58668V1.29187Z" fill="#2A5F9E"/>
<path d="M14.7082 5.62967C14.637 5.39263 14.5422 5.1793 14.4237 4.94226L13.4993 5.62967H14.7082Z" fill="#2A5F9E"/>
<path d="M2.50076 5.62967L1.57631 4.94226C1.4815 5.1793 1.38668 5.39263 1.29187 5.62967H2.50076Z" fill="#2A5F9E"/>
<path d="M10.0148 6.57779H14.9452C14.8741 6.24594 14.7793 5.93779 14.6845 5.62965H13.4756L14.4 4.94224C14.2104 4.53928 13.9971 4.18372 13.7363 3.82816L11.3185 5.62965H10.3704V5.15557L13.1437 3.11705L12.8119 2.7852L10.3704 4.56298V1.29187C10.0622 1.17335 9.75409 1.10224 9.42224 1.03113V6.57779H10.0148Z" fill="white"/>
<path d="M1.03113 6.57779H6.57779V1.03113C6.24594 1.10224 5.93779 1.19705 5.62965 1.29187V4.56298L3.18816 2.7852C2.85631 3.09335 2.57187 3.4252 2.28742 3.78076L4.82372 5.62965H3.21187L1.76594 4.56298C1.69483 4.6815 1.62372 4.82372 1.57631 4.94224L2.50076 5.62965H1.29187C1.19705 5.93779 1.10224 6.24594 1.03113 6.57779Z" fill="white"/>
<path d="M13.7601 3.8282C13.5704 3.56746 13.3808 3.33042 13.1675 3.09338L10.3704 5.1319V5.60598H11.3186L13.7601 3.8282Z" fill="#ED4C5C"/>
<path d="M4.80003 5.62965L2.28743 3.78076C2.19262 3.89928 2.12151 4.0178 2.02669 4.13632C2.00299 4.16002 2.00299 4.18372 1.97929 4.18372C1.90817 4.30224 1.81336 4.44447 1.74225 4.56298L3.18817 5.62965H4.80003Z" fill="#ED4C5C"/>
<path d="M14.9689 6.5778H9.42225V1.03114C8.97188 0.936323 8.4978 0.888916 8.00003 0.888916C7.50225 0.888916 7.02817 0.936323 6.5778 1.03114V6.5778H1.03114C0.936323 7.02817 0.888916 7.50225 0.888916 8.00003C0.888916 8.4978 0.936323 8.97188 1.03114 9.42225H6.5778V14.9689C7.02817 15.0637 7.50225 15.1111 8.00003 15.1111C8.4978 15.1111 8.97188 15.0637 9.42225 14.9689V9.42225H14.9689C15.0637 8.97188 15.1111 8.4978 15.1111 8.00003C15.1111 7.50225 15.0637 7.02817 14.9689 6.5778Z" fill="#ED4C5C"/>
</g>
<defs>
<clipPath id="clip0_4414_1380">
<rect width="16" height="16" fill="white"/>
</clipPath>
</defs>
</svg>
