<svg width="17" height="16" viewBox="0 0 17 16" fill="none" xmlns="http://www.w3.org/2000/svg">
<g clip-path="url(#clip0_4680_32503)">
<path d="M0.333496 2C0.333496 0.90625 1.2085 0 2.3335 0H14.3335C15.4272 0 16.3335 0.90625 16.3335 2V11C16.3335 12.125 15.4272 13 14.3335 13H9.98975L6.11475 15.9062C5.9585 16.0312 5.771 16.0312 5.5835 15.9688C5.42725 15.875 5.3335 15.7188 5.3335 15.5V13H2.3335C1.2085 13 0.333496 12.125 0.333496 11V2ZM10.9585 3.84375C10.521 3.40625 9.771 3.40625 9.30225 3.84375L8.8335 4.3125L10.4897 6L10.9585 5.53125C11.4272 5.0625 11.4272 4.3125 10.9585 3.875V3.84375ZM5.896 7.28125C5.771 7.40625 5.67725 7.5625 5.61475 7.75L5.3335 8.875C5.30225 9.0625 5.3335 9.25 5.4585 9.375C5.5835 9.5 5.771 9.53125 5.92725 9.5L7.0835 9.21875C7.271 9.15625 7.42725 9.0625 7.55225 8.9375L9.80225 6.6875L8.146 5.03125L5.896 7.28125Z" fill="#A8BAEF"/>
</g>
<defs>
<clipPath id="clip0_4680_32503">
<rect width="16" height="16" fill="white" transform="translate(0.333496)"/>
</clipPath>
</defs>
</svg>
