<svg width="173" height="140" viewBox="0 0 173 140" fill="none" xmlns="http://www.w3.org/2000/svg">
<g id="Fence">
<path id="Vector" d="M44.2095 49.9568L43.1499 57.5412L42.0011 65.6945L31.5167 139.989H14.3848L24.8692 65.6945L26.018 57.5412L27.0776 49.9568H44.2095Z" fill="#192641"/>
<path id="Vector_2" opacity="0.1" d="M41.735 49.9568C40.8315 57.4854 39.8612 65.003 38.8797 72.5093L35.857 95.0396L32.6894 117.525L31.061 128.779L29.3545 140L30.7487 128.724L32.2433 117.436L35.2659 94.917L38.4335 72.4201C39.482 64.9249 40.575 57.3962 41.735 49.9568Z" fill="black"/>
<path id="Vector_3" opacity="0.1" d="M43.1509 57.5412L42.0021 65.6945H24.8701L26.0189 57.5412H43.1509Z" fill="black"/>
<path id="Vector_4" d="M128.788 49.9568L129.848 57.5412L130.996 65.6945L141.47 139.989H158.602L148.128 65.6945L146.98 57.5412L145.92 49.9568H128.788Z" fill="#192641"/>
<path id="Vector_5" opacity="0.1" d="M131.321 49.9568C132.225 57.4854 133.195 65.003 134.177 72.5093L137.199 95.0396L140.367 117.525L141.995 128.779L143.702 140L142.308 128.724L140.846 117.447L137.824 94.9281L134.656 72.4313C133.574 64.9249 132.481 57.3962 131.321 49.9568Z" fill="black"/>
<path id="Vector_6" opacity="0.1" d="M129.85 57.5412H146.982L148.13 65.6945H130.998L129.85 57.5412Z" fill="black"/>
<path id="Vector_7" d="M43.5861 34.3754H30.001L31.6963 21.7161H41.9019L43.5861 34.3754Z" fill="#192641"/>
<path id="Vector_8" opacity="0.1" d="M43.5861 34.3754H30.001L31.6963 21.7161H41.9019L43.5861 34.3754Z" fill="black"/>
<path id="Vector_9" d="M49.4534 12.6593C49.4534 15.1631 48.711 17.6106 47.32 19.6925C45.9289 21.7743 43.9518 23.3969 41.6386 24.355C39.3254 25.3132 36.7801 25.5639 34.3244 25.0754C31.8687 24.587 29.613 23.3813 27.8426 21.6108C26.0722 19.8404 24.8665 17.5847 24.378 15.129C23.8896 12.6734 24.1402 10.128 25.0984 7.8148C26.0566 5.50161 27.6791 3.5245 29.761 2.13347C31.8428 0.742447 34.2903 0 36.7941 0C38.4566 0 40.1027 0.327427 41.6386 0.963618C43.1745 1.59981 44.5701 2.53231 45.7456 3.70784C46.9211 4.88336 47.8536 6.2789 48.4898 7.8148C49.126 9.35071 49.4534 10.9969 49.4534 12.6593Z" fill="#192641"/>
<path id="Vector_10" d="M46.4191 12.6593C46.4213 14.5636 45.8586 16.4256 44.8023 18.01C43.746 19.5944 42.2435 20.8299 40.4848 21.5601C38.7262 22.2904 36.7904 22.4826 34.9225 22.1124C33.0546 21.7423 31.3385 20.8264 29.9912 19.4807C28.6439 18.135 27.7261 16.4199 27.3537 14.5524C26.9814 12.6849 27.1714 10.749 27.8996 8.98951C28.6278 7.23002 29.8615 5.72606 31.4447 4.6679C33.0279 3.60973 34.8893 3.04489 36.7935 3.04489C39.3445 3.04489 41.7911 4.05749 43.5959 5.86022C45.4007 7.66295 46.4161 10.1084 46.4191 12.6593Z" fill="#3E4F70"/>
<path id="Vector_11" d="M44.8348 12.1017C44.7478 10.9552 44.4244 9.83911 43.885 8.82367C43.3456 7.80824 42.6019 6.91543 41.7006 6.20145C40.7904 5.4969 39.7471 4.98356 38.6336 4.69223C37.52 4.4009 36.359 4.33756 35.2204 4.50608C34.0883 4.68038 33.006 5.09257 32.0448 5.71545C31.0835 6.33833 30.2652 7.1578 29.6436 8.11987C28.9886 9.13663 28.5592 10.2819 28.3841 11.4786C28.209 12.6753 28.2924 13.8956 28.6286 15.0574C29.2007 17.0804 30.5527 18.7935 32.3873 19.82C34.1719 20.8367 36.2692 21.1584 38.2765 20.7234C40.2221 20.3141 41.9671 19.2466 43.2175 17.7008C44.4499 16.1753 45.1613 14.2952 45.2475 12.3359C45.2475 12.2467 45.2474 12.1686 45.1694 12.1686C45.0913 12.1686 45.0802 12.2355 45.0802 12.3359C45.033 13.1254 44.883 13.9052 44.634 14.6559C44.1048 16.1383 43.1928 17.4543 41.9906 18.4704C41.3787 18.9793 40.7085 19.4136 39.9941 19.7642C38.972 20.252 37.8583 20.5181 36.7261 20.545C35.5939 20.5719 34.4688 20.359 33.4246 19.9204C32.3715 19.4778 31.4271 18.8118 30.6568 17.9682C29.8865 17.1247 29.3086 16.1239 28.9632 15.0351C28.6181 13.9238 28.5152 12.7515 28.6614 11.5971C28.8076 10.4427 29.1996 9.33304 29.8109 8.34292C30.4056 7.39406 31.1975 6.58425 32.1328 5.96842C33.0681 5.35259 34.1249 4.94516 35.2315 4.77379C36.7223 4.53454 38.25 4.70377 39.6523 5.26349C41.0546 5.82322 42.2789 6.75253 43.1952 7.95257C43.6536 8.56581 44.0287 9.23714 44.3106 9.94904C44.5609 10.6715 44.7292 11.4197 44.8125 12.1798C44.8242 12.171 44.8328 12.1586 44.8368 12.1445C44.8408 12.1304 44.8401 12.1154 44.8348 12.1017Z" fill="#192641"/>
<path id="Vector_12" d="M43.7074 12.1128C43.6219 11.1312 43.3364 10.1775 42.8684 9.31047C42.4003 8.44343 41.7596 7.68143 40.9859 7.07141C40.2015 6.46686 39.3037 6.026 38.3457 5.77501C37.3877 5.52402 36.3891 5.46801 35.4091 5.6103C34.4366 5.75313 33.5055 6.10032 32.6769 6.62899C31.8484 7.15766 31.1412 7.85583 30.6019 8.67754C30.0249 9.55433 29.6427 10.5447 29.4811 11.5818C29.3195 12.6189 29.3822 13.6785 29.665 14.6893C29.907 15.5631 30.3193 16.3805 30.8782 17.0945C31.4372 17.8084 32.1317 18.4049 32.9218 18.8496C34.4851 19.723 36.3131 19.9966 38.0636 19.6192C39.7508 19.2528 41.2598 18.3151 42.3355 16.9647C43.4003 15.6399 44.0173 14.0114 44.0977 12.3136C44.0977 12.2355 44.0977 12.1686 44.0197 12.1686C43.9416 12.1686 43.9304 12.2244 43.9304 12.3136C43.8343 13.6768 43.3764 14.9897 42.604 16.117C41.8316 17.2443 40.7725 18.1452 39.5359 18.7269C38.6556 19.1558 37.6941 19.3925 36.7153 19.4214C35.7365 19.4502 34.7628 19.2706 33.8587 18.8942C32.9471 18.5079 32.1307 17.9276 31.4661 17.1938C30.8016 16.4599 30.305 15.59 30.0107 14.6447C29.7156 13.6793 29.6315 12.6617 29.7643 11.661C29.8971 10.6603 30.2436 9.69983 30.7803 8.84483C31.298 8.03726 31.9832 7.35042 32.7895 6.83083C33.5958 6.31125 34.5044 5.97106 35.4537 5.83335C36.7236 5.64014 38.022 5.78833 39.2157 6.26267C40.4094 6.73701 41.4553 7.52043 42.2462 8.53253C42.6294 9.05948 42.9442 9.63289 43.1831 10.239C43.4048 10.8562 43.5581 11.4957 43.6404 12.1463L43.7074 12.1128Z" fill="#192641"/>
<path id="Vector_13" d="M42.5823 12.124C42.5017 11.3081 42.2553 10.5173 41.8583 9.80004C41.4613 9.08276 40.922 8.4541 40.2735 7.95252C38.9697 6.94913 37.3211 6.50387 35.6894 6.71446C34.874 6.82286 34.0908 7.10251 33.3911 7.53501C32.6914 7.96752 32.091 8.54311 31.6295 9.22402C31.1311 9.96111 30.7966 10.7965 30.6484 11.6739C30.5002 12.5512 30.5419 13.4502 30.7707 14.3101C30.9675 15.0592 31.314 15.7607 31.7894 16.3723C32.2649 16.9838 32.8593 17.4926 33.5368 17.8681C34.867 18.6205 36.4309 18.8474 37.9201 18.5038C39.3445 18.1956 40.62 17.4082 41.5339 16.2731C42.4247 15.1463 42.9431 13.7704 43.0173 12.3359C43.0173 12.269 43.0173 12.2132 42.9393 12.2132C42.8612 12.2132 42.85 12.2132 42.85 12.3359C42.7575 13.4806 42.367 14.5811 41.7174 15.5282C41.0678 16.4752 40.1817 17.2358 39.147 17.7342C38.4059 18.1027 37.5944 18.3083 36.7671 18.3372C35.9399 18.366 35.1161 18.2175 34.351 17.9015C33.5772 17.5731 32.8864 17.0763 32.3288 16.4473C31.7712 15.8184 31.3609 15.073 31.1276 14.2654C30.8853 13.4505 30.8226 12.5927 30.9439 11.7512C31.0652 10.9098 31.3676 10.1046 31.8303 9.39131C32.2696 8.72631 32.8463 8.1632 33.5217 7.73992C34.197 7.31664 34.9552 7.04304 35.7452 6.93754C36.7933 6.81402 37.8558 6.94012 38.8459 7.3056C39.8401 7.67978 40.7122 8.32033 41.3666 9.1571C41.6903 9.58928 41.9565 10.0617 42.1585 10.5625C42.3533 11.0738 42.4917 11.6049 42.5712 12.1463C42.5712 12.1463 42.5935 12.1463 42.5823 12.124Z" fill="#192641"/>
<path id="Vector_14" d="M41.4568 12.1353C41.3823 11.4786 41.176 10.8437 40.8502 10.2687C40.5244 9.69373 40.0858 9.19051 39.5607 8.78917C38.5197 8.0051 37.2212 7.64263 35.9246 7.77419C35.2589 7.84755 34.6163 8.06148 34.0395 8.40182C33.4627 8.74216 32.9647 9.20112 32.5785 9.74837C32.158 10.3454 31.8706 11.0259 31.7359 11.7436C31.6012 12.4614 31.6223 13.1998 31.7978 13.9087C31.9486 14.5273 32.2243 15.1086 32.6079 15.6169C32.9915 16.1251 33.4749 16.5497 34.0285 16.8644C35.131 17.4813 36.4266 17.6567 37.6534 17.3551C38.8297 17.0805 39.8742 16.4065 40.6091 15.4479C41.3273 14.5241 41.7474 13.4038 41.8137 12.2356C41.8137 12.1799 41.8137 12.1353 41.7357 12.1353C41.711 12.138 41.6882 12.1498 41.6718 12.1683C41.6553 12.1868 41.6463 12.2108 41.6464 12.2356C41.5616 13.1615 41.24 14.05 40.7126 14.8157C40.1852 15.5813 39.4697 16.1985 38.635 16.6078C38.0372 16.9215 37.3782 17.101 36.704 17.1337C36.0298 17.1665 35.3565 17.0517 34.7312 16.7975C34.1171 16.5318 33.5689 16.1343 33.1256 15.6331C32.6823 15.132 32.3546 14.5394 32.1659 13.8975C31.9769 13.2335 31.9349 12.5363 32.0427 11.8544C32.1506 11.1726 32.4058 10.5224 32.7905 9.94912C33.1505 9.4243 33.6202 8.98396 34.1671 8.6585C34.714 8.33305 35.3251 8.13024 35.9581 8.06416C36.7853 7.99046 37.6187 8.09701 38.4007 8.37646C39.1884 8.66436 39.8826 9.16186 40.4084 9.81529C40.6736 10.1581 40.8947 10.5328 41.0664 10.9306C41.222 11.3434 41.3414 11.7688 41.4234 12.2022C41.4234 12.2022 41.468 12.1464 41.4568 12.1353Z" fill="#192641"/>
<path id="Vector_15" d="M142.697 34.3754H129.112L130.808 21.7161H141.013L142.697 34.3754Z" fill="#192641"/>
<path id="Vector_16" opacity="0.1" d="M142.697 34.3754H129.112L130.808 21.7161H141.013L142.697 34.3754Z" fill="black"/>
<path id="Vector_17" d="M148.563 12.6593C148.563 15.1631 147.82 17.6106 146.429 19.6925C145.038 21.7743 143.061 23.3969 140.748 24.355C138.435 25.3132 135.889 25.5639 133.434 25.0754C130.978 24.587 128.722 23.3813 126.952 21.6108C125.182 19.8404 123.976 17.5847 123.487 15.129C122.999 12.6734 123.25 10.128 124.208 7.8148C125.166 5.50161 126.789 3.5245 128.87 2.13347C130.952 0.742447 133.4 0 135.903 0C137.566 0 139.212 0.327427 140.748 0.963618C142.284 1.59981 143.679 2.53231 144.855 3.70784C146.031 4.88336 146.963 6.2789 147.599 7.8148C148.235 9.35071 148.563 10.9969 148.563 12.6593Z" fill="#192641"/>
<path id="Vector_18" d="M145.53 12.6593C145.533 14.5636 144.97 16.4256 143.914 18.01C142.857 19.5944 141.355 20.8299 139.596 21.5601C137.837 22.2904 135.902 22.4826 134.034 22.1124C132.166 21.7423 130.45 20.8264 129.103 19.4807C127.755 18.135 126.837 16.4199 126.465 14.5524C126.093 12.6849 126.283 10.749 127.011 8.98951C127.739 7.23002 128.973 5.72606 130.556 4.6679C132.139 3.60973 134.001 3.04489 135.905 3.04489C138.456 3.04489 140.902 4.05749 142.707 5.86022C144.512 7.66295 145.527 10.1084 145.53 12.6593Z" fill="#3E4F70"/>
<path id="Vector_19" d="M143.946 12.1017C143.859 10.9552 143.536 9.83911 142.996 8.82367C142.457 7.80824 141.713 6.91543 140.812 6.20145C139.902 5.4969 138.858 4.98356 137.745 4.69223C136.631 4.4009 135.47 4.33756 134.332 4.50608C133.2 4.68038 132.117 5.09257 131.156 5.71545C130.195 6.33833 129.376 7.1578 128.755 8.11987C128.1 9.13663 127.671 10.2819 127.495 11.4786C127.32 12.6753 127.404 13.8956 127.74 15.0574C128.312 17.0804 129.664 18.7935 131.499 19.82C133.283 20.8367 135.381 21.1584 137.388 20.7234C139.333 20.3141 141.078 19.2466 142.329 17.7008C143.566 16.1781 144.278 14.2963 144.359 12.3359C144.359 12.2467 144.359 12.1686 144.281 12.1686C144.203 12.1686 144.191 12.2355 144.191 12.3359C144.15 13.126 144 13.9066 143.745 14.6559C143.216 16.1383 142.304 17.4543 141.102 18.4704C140.49 18.9793 139.82 19.4136 139.105 19.7642C138.083 20.252 136.97 20.5181 135.837 20.545C134.705 20.5719 133.58 20.359 132.536 19.9204C131.483 19.4778 130.538 18.8118 129.768 17.9682C128.998 17.1247 128.42 16.1239 128.075 15.0351C127.729 13.9238 127.627 12.7515 127.773 11.5971C127.919 10.4427 128.311 9.33304 128.922 8.34292C129.517 7.39406 130.309 6.58425 131.244 5.96842C132.179 5.35259 133.236 4.94516 134.343 4.77379C135.834 4.53454 137.361 4.70377 138.764 5.26349C140.166 5.82322 141.39 6.75253 142.307 7.95257C142.765 8.56581 143.14 9.23714 143.422 9.94904C143.672 10.6715 143.841 11.4197 143.924 12.1798C143.94 12.157 143.948 12.1295 143.946 12.1017Z" fill="#192641"/>
<path id="Vector_20" d="M142.82 12.1128C142.734 11.1312 142.449 10.1775 141.981 9.31047C141.513 8.44343 140.872 7.68143 140.098 7.07141C139.314 6.46686 138.416 6.026 137.458 5.77501C136.5 5.52402 135.501 5.46801 134.521 5.6103C133.549 5.75313 132.618 6.10032 131.789 6.62899C130.961 7.15766 130.253 7.85583 129.714 8.67754C129.137 9.55433 128.755 10.5447 128.593 11.5818C128.432 12.6189 128.494 13.6785 128.777 14.6893C129.019 15.5631 129.432 16.3805 129.991 17.0945C130.549 17.8084 131.244 18.4049 132.034 18.8496C133.597 19.723 135.425 19.9966 137.176 19.6192C138.863 19.2528 140.372 18.3151 141.448 16.9647C142.513 15.6399 143.13 14.0114 143.21 12.3136C143.21 12.2355 143.21 12.1686 143.132 12.1686C143.054 12.1686 143.043 12.2244 143.043 12.3136C142.947 13.6768 142.489 14.9897 141.716 16.117C140.944 17.2443 139.885 18.1452 138.648 18.7269C137.768 19.1558 136.806 19.3925 135.828 19.4214C134.849 19.4502 133.875 19.2706 132.971 18.8942C132.057 18.5093 131.239 17.9296 130.572 17.1956C129.906 16.4616 129.407 15.5911 129.112 14.6447C128.817 13.6793 128.733 12.6617 128.865 11.661C128.998 10.6603 129.345 9.69983 129.881 8.84483C130.399 8.03726 131.084 7.35042 131.891 6.83083C132.697 6.31125 133.606 5.97106 134.555 5.83335C135.825 5.64014 137.123 5.78833 138.317 6.26267C139.511 6.73701 140.556 7.52043 141.347 8.53253C141.731 9.05948 142.045 9.63289 142.284 10.239C142.506 10.8562 142.659 11.4957 142.742 12.1463C142.742 12.1463 142.831 12.1351 142.82 12.1128Z" fill="#192641"/>
<path id="Vector_21" d="M141.695 12.124C141.614 11.3081 141.368 10.5173 140.971 9.80004C140.574 9.08276 140.034 8.4541 139.386 7.95252C138.082 6.94913 136.433 6.50387 134.802 6.71446C133.986 6.82286 133.203 7.10251 132.503 7.53501C131.804 7.96752 131.203 8.54311 130.742 9.22402C130.243 9.96111 129.909 10.7965 129.761 11.6739C129.613 12.5512 129.654 13.4502 129.883 14.3101C130.08 15.0592 130.426 15.7607 130.902 16.3723C131.377 16.9838 131.972 17.4926 132.649 17.8681C133.979 18.6205 135.543 18.8474 137.032 18.5038C138.457 18.1956 139.732 17.4082 140.646 16.2731C141.542 15.1489 142.061 13.7714 142.13 12.3359C142.13 12.269 142.13 12.2132 142.052 12.2132C141.973 12.2132 141.962 12.2132 141.962 12.3359C141.87 13.4806 141.479 14.5811 140.83 15.5282C140.18 16.4752 139.294 17.2358 138.259 17.7342C137.518 18.1027 136.707 18.3083 135.879 18.3372C135.052 18.366 134.228 18.2175 133.463 17.9015C132.69 17.5804 131.998 17.0917 131.437 16.4707C130.875 15.8496 130.459 15.1116 130.218 14.3101C129.975 13.4951 129.913 12.6374 130.034 11.7959C130.155 10.9544 130.458 10.1492 130.92 9.43594C131.36 8.77093 131.936 8.20782 132.612 7.78455C133.287 7.36127 134.045 7.08763 134.835 6.98213C135.883 6.85861 136.946 6.98475 137.936 7.35022C138.694 7.6229 139.384 8.05462 139.962 8.61637C140.539 9.17812 140.989 9.85687 141.282 10.6071C141.477 11.1184 141.615 11.6495 141.695 12.1909C141.695 12.1909 141.706 12.1463 141.695 12.124Z" fill="#192641"/>
<path id="Vector_22" d="M140.567 12.1351C140.493 11.4785 140.287 10.8436 139.961 10.2686C139.635 9.69359 139.196 9.19037 138.671 8.78904C137.631 8.00396 136.332 7.64138 135.035 7.77406C134.37 7.84742 133.727 8.06135 133.15 8.40169C132.573 8.74203 132.075 9.20099 131.689 9.74823C131.271 10.3462 130.984 11.0267 130.85 11.7441C130.715 12.4616 130.735 13.1995 130.908 13.9085C131.059 14.5272 131.335 15.1085 131.719 15.6167C132.102 16.125 132.586 16.5495 133.139 16.8642C134.242 17.4812 135.537 17.6566 136.764 17.355C137.94 17.0804 138.985 16.4063 139.72 15.4477C140.438 14.524 140.858 13.4037 140.924 12.2355C140.924 12.1797 140.924 12.1351 140.846 12.1351C140.822 12.1379 140.799 12.1496 140.782 12.1682C140.766 12.1867 140.757 12.2107 140.757 12.2355C140.672 13.1614 140.351 14.0498 139.823 14.8155C139.296 15.5812 138.58 16.1984 137.746 16.6077C137.148 16.9214 136.489 17.1008 135.815 17.1336C135.14 17.1663 134.467 17.0516 133.842 16.7973C133.207 16.5353 132.64 16.1335 132.182 15.6217C131.724 15.1099 131.388 14.5015 131.198 13.8416C131.009 13.1776 130.967 12.4804 131.075 11.7986C131.183 11.1167 131.438 10.4665 131.823 9.89324C132.183 9.36841 132.653 8.92804 133.2 8.60258C133.747 8.27713 134.358 8.07435 134.991 8.00828C135.818 7.93457 136.651 8.04112 137.433 8.32058C138.221 8.60847 138.915 9.10597 139.441 9.7594C139.706 10.1022 139.927 10.4769 140.099 10.8748C140.255 11.2875 140.374 11.7129 140.456 12.1463C140.456 12.1463 140.579 12.1463 140.567 12.1351Z" fill="#192641"/>
<path id="Vector_23" d="M171.842 27.9174H1.14746V60.564H171.842V27.9174Z" fill="#3E4F70"/>
<path id="Vector_24" d="M172.132 60.8427H0.868164V27.6385H172.132V60.8427ZM1.48161 60.2851H171.574V28.1962H1.42584L1.48161 60.2851Z" fill="#3E4F70"/>
<path id="Vector_25" d="M36.4212 28.3011L23.8432 60.5751H1.80371L13.7633 28.6056L36.4212 28.3011Z" fill="#192641"/>
<path id="Vector_26" d="M65.5077 27.6907L68.8919 60.9545H46.8301L59.3192 27.8435L65.5077 27.6907Z" fill="#192641"/>
<path id="Vector_27" d="M126.603 27.9174L114.399 59.6696L92.5069 59.2715L104.563 27.9174H126.603Z" fill="#192641"/>
<path id="Vector_28" d="M171.796 27.9174L159.435 60.4656L136.519 60.0107L149.735 27.9174H171.796Z" fill="#192641"/>
<path id="Vector_29" d="M168.396 100.471H4.60547V121.139H168.396V100.471Z" fill="#3E4F70"/>
<path id="Vector_30" d="M168.673 121.418H4.3584V100.226H168.673V121.418ZM4.88262 120.861H168.116V100.784H4.88262V120.861Z" fill="#3E4F70"/>
<path id="Vector_31" d="M38.2655 100.471L26.3757 121.139H5.22852L17.1183 100.471H38.2655Z" fill="#192641"/>
<path id="Vector_32" d="M81.6311 100.471L69.7414 121.139H48.583L60.4727 100.471H81.6311Z" fill="#192641"/>
<path id="Vector_33" d="M124.974 100.471L113.096 121.139H91.9375L103.827 100.471H124.974Z" fill="#192641"/>
<path id="Vector_34" d="M168.34 100.471L156.45 121.139H135.292L147.182 100.471H168.34Z" fill="#192641"/>
<path id="Vector_35" d="M112.335 50.402C115.741 36.1296 106.931 21.7989 92.6589 18.3935C78.3865 14.9881 64.0559 23.7975 60.6504 38.0699C57.245 52.3423 66.0544 66.673 80.3268 70.0784C94.5992 73.4838 108.93 64.6744 112.335 50.402Z" fill="#E0E0E0"/>
<path id="Vector_36" d="M86.4952 71.0817C81.1849 71.0817 75.9939 69.5069 71.5788 66.5564C67.1636 63.606 63.7226 59.4124 61.691 54.5062C59.6593 49.5999 59.1283 44.2014 60.1651 38.9933C61.2019 33.7853 63.7599 29.0017 67.5156 25.2475C71.2713 21.4934 76.056 18.9374 81.2645 17.9028C86.4729 16.8681 91.8713 17.4014 96.7767 19.435C101.682 21.4687 105.874 24.9115 108.823 29.3278C111.771 33.7442 113.344 38.9359 113.342 44.2461C113.336 51.3635 110.505 58.1875 105.471 63.2192C100.438 68.2508 93.6125 71.0787 86.4952 71.0817ZM86.4952 17.9571C81.2957 17.9571 76.213 19.4989 71.8898 22.3876C67.5665 25.2763 64.197 29.3821 62.2073 34.1858C60.2175 38.9895 59.6969 44.2753 60.7113 49.3749C61.7256 54.4745 64.2294 59.1587 67.906 62.8353C71.5826 66.5119 76.2668 69.0157 81.3664 70.03C86.466 71.0444 91.7519 70.5238 96.5555 68.534C101.359 66.5443 105.465 63.1747 108.354 58.8515C111.242 54.5283 112.784 49.4456 112.784 44.2461C112.778 37.2756 110.007 30.5924 105.078 25.6635C100.149 20.7346 93.4656 17.963 86.4952 17.9571Z" fill="#3E4F70"/>
<path id="Vector_37" d="M108.409 49.4652C111.291 37.3668 103.82 25.2226 91.7215 22.3404C79.6231 19.4581 67.4789 26.9293 64.5967 39.0277C61.7144 51.126 69.1856 63.2702 81.284 66.1525C93.3824 69.0347 105.527 61.5636 108.409 49.4652Z" fill="#192641"/>
<path id="Vector_38" d="M100.615 41.6251H72.374V46.8561H100.615V41.6251Z" fill="#E0E0E0"/>
</g>
</svg>
