<svg width="17" height="16" viewBox="0 0 17 16" fill="none" xmlns="http://www.w3.org/2000/svg">
<g clip-path="url(#clip0_4495_5712)">
<path d="M11.5 3C10.9375 3 10.5 2.5625 10.5 2C10.5 1.46875 10.9375 1 11.5 1H13.5C15.1562 1 16.5 2.34375 16.5 4V12C16.5 13.6562 15.1562 15 13.5 15H11.5C10.9375 15 10.5 14.5625 10.5 14C10.5 13.4688 10.9375 13 11.5 13H13.5C14.0312 13 14.5 12.5625 14.5 12V4C14.5 3.46875 14.0312 3 13.5 3H11.5ZM11.1875 8.71875L7.1875 12.7188C6.8125 13.125 6.15625 13.125 5.78125 12.7188C5.375 12.3438 5.375 11.6875 5.78125 11.3125L8.0625 9H1.5C0.9375 9 0.5 8.5625 0.5 8C0.5 7.46875 0.9375 7 1.5 7H8.0625L5.78125 4.71875C5.375 4.34375 5.375 3.6875 5.78125 3.3125C6.15625 2.90625 6.8125 2.90625 7.1875 3.3125L11.1875 7.3125C11.5938 7.6875 11.5938 8.34375 11.1875 8.71875Z" fill="#A8BAEF"/>
</g>
<defs>
<clipPath id="clip0_4495_5712">
<rect width="16" height="16" fill="white" transform="translate(0.5)"/>
</clipPath>
</defs>
</svg>
