<svg width="20" height="20" viewBox="0 0 20 20" fill="none" xmlns="http://www.w3.org/2000/svg">
<path d="M7.73047 13.6328C7.73047 13.5781 7.67578 13.5234 7.59375 13.5234C7.51172 13.5234 7.45703 13.5781 7.45703 13.6328C7.45703 13.6875 7.51172 13.7422 7.59375 13.7148C7.67578 13.7148 7.73047 13.6875 7.73047 13.6328ZM6.88281 13.4961C6.91016 13.4414 6.99219 13.4141 7.07422 13.4414C7.15625 13.4688 7.18359 13.5234 7.18359 13.5781C7.15625 13.6328 7.07422 13.6602 7.01953 13.6328C6.9375 13.6328 6.88281 13.5508 6.88281 13.4961ZM8.11328 13.4688C8.16797 13.4414 8.25 13.4961 8.25 13.5508C8.27734 13.6055 8.22266 13.6328 8.14062 13.6602C8.05859 13.6875 7.97656 13.6602 7.97656 13.6055C7.97656 13.5234 8.03125 13.4688 8.11328 13.4688ZM9.89062 2.96875C13.6914 2.96875 16.7812 5.86719 16.7812 9.64062C16.7812 12.6758 14.9219 15.2734 12.1875 16.1758C11.832 16.2578 11.6953 16.0391 11.6953 15.8477C11.6953 15.6289 11.7227 14.4805 11.7227 13.5781C11.7227 12.9219 11.5039 12.5117 11.2578 12.293C12.7891 12.1289 14.4023 11.9102 14.4023 9.28516C14.4023 8.51953 14.1289 8.16406 13.6914 7.67188C13.7461 7.48047 13.9922 6.76953 13.6094 5.8125C13.0352 5.62109 11.7227 6.55078 11.7227 6.55078C11.1758 6.38672 10.6016 6.33203 10 6.33203C9.42578 6.33203 8.85156 6.38672 8.30469 6.55078C8.30469 6.55078 6.96484 5.64844 6.41797 5.8125C6.03516 6.76953 6.25391 7.48047 6.33594 7.67188C5.89844 8.16406 5.67969 8.51953 5.67969 9.28516C5.67969 11.9102 7.23828 12.1289 8.76953 12.293C8.55078 12.4844 8.38672 12.7852 8.33203 13.2227C7.92188 13.4141 6.9375 13.7148 6.33594 12.6484C5.95312 11.9922 5.26953 11.9375 5.26953 11.9375C4.61328 11.9375 5.24219 12.375 5.24219 12.375C5.67969 12.5664 5.98047 13.3594 5.98047 13.3594C6.39062 14.5898 8.30469 14.1797 8.30469 14.1797C8.30469 14.7539 8.30469 15.6836 8.30469 15.875C8.30469 16.0391 8.19531 16.2578 7.83984 16.2031C5.10547 15.2734 3.21875 12.6758 3.21875 9.64062C3.21875 5.86719 6.11719 2.96875 9.89062 2.96875ZM5.87109 12.4023C5.89844 12.375 5.95312 12.4023 6.00781 12.4297C6.0625 12.4844 6.0625 12.5664 6.03516 12.5938C5.98047 12.6211 5.92578 12.5938 5.87109 12.5664C5.84375 12.5117 5.81641 12.4297 5.87109 12.4023ZM5.57031 12.1836C5.59766 12.1562 5.625 12.1562 5.67969 12.1836C5.73438 12.2109 5.76172 12.2383 5.76172 12.2656C5.73438 12.3203 5.67969 12.3203 5.625 12.293C5.57031 12.2656 5.54297 12.2383 5.57031 12.1836ZM6.44531 13.168C6.5 13.1133 6.58203 13.1406 6.63672 13.1953C6.69141 13.25 6.69141 13.332 6.66406 13.3594C6.63672 13.4141 6.55469 13.3867 6.5 13.332C6.41797 13.2773 6.41797 13.1953 6.44531 13.168ZM6.14453 12.7578C6.19922 12.7305 6.25391 12.7578 6.30859 12.8125C6.33594 12.8672 6.33594 12.9492 6.30859 12.9766C6.25391 13.0039 6.19922 12.9766 6.14453 12.9219C6.08984 12.8672 6.08984 12.7852 6.14453 12.7578Z" fill="#A8BAEF"/>
</svg>
