<svg width="55" height="54" viewBox="0 0 55 54" fill="none" xmlns="http://www.w3.org/2000/svg">
<path d="M20.3333 35C28.6146 35 35.3333 28.2812 35.3333 20C35.3333 11.7188 28.6146 5 20.3333 5C12.0521 5 5.33334 11.7188 5.33334 20C5.33334 20.3125 5.33334 20.625 5.33334 20.9375L0.411469 22.4219C0.333344 21.6406 0.333344 20.8594 0.333344 20C0.333344 8.98438 9.23959 0 20.3333 0C31.349 0 40.3333 8.98438 40.3333 20C40.3333 31.0938 31.349 40 20.3333 40C19.474 40 18.6927 40 17.9115 39.9219L19.3958 35C19.7083 35 20.0208 35 20.3333 35ZM20.4896 31.25L22.0521 26.0156C24.6302 25.3125 26.5833 22.8906 26.5833 20.0781C26.5833 16.5625 23.7708 13.8281 20.3333 13.8281C17.4427 13.8281 15.0208 15.7031 14.3177 18.3594L9.08334 19.8438C9.16147 13.75 14.1615 8.75 20.3333 8.75C26.5052 8.75 31.5833 13.8281 31.5833 20C31.5833 26.1719 26.5833 31.1719 20.4896 31.25ZM3.38022 24.1406L19.3177 19.4531C20.2552 19.1406 21.1927 20 20.8802 21.0156L16.1927 36.9531C15.8802 38.0469 14.3958 38.2031 13.849 37.1875L11.6615 32.7344C11.5833 32.5781 11.5052 32.5 11.4271 32.4219L4.55209 39.2969C3.61459 40.3125 1.97397 40.3125 1.03647 39.2969C0.0208435 38.3594 0.0208435 36.7188 1.03647 35.7812L7.91147 28.9062C7.83334 28.8281 7.75522 28.75 7.59897 28.6719L3.14584 26.4844C2.13022 25.9375 2.28647 24.4531 3.38022 24.1406Z" fill="#A8BAEF"/>
<mask id="path-2-outside-1_4695_29383" maskUnits="userSpaceOnUse" x="25.3333" y="26" width="29" height="28" fill="black">
<rect fill="white" x="25.3333" y="26" width="29" height="28"/>
<path d="M40.3333 52C36.0208 52 32.0833 49.75 29.9271 46C27.7708 42.2969 27.7708 37.75 29.9271 34C32.0833 30.2969 36.0208 28 40.3333 28C44.599 28 48.5365 30.2969 50.6927 34C52.849 37.75 52.849 42.2969 50.6927 46C48.5365 49.75 44.599 52 40.3333 52ZM41.2708 34.2812C41.2708 33.7188 40.849 33.25 40.2865 33.25C39.724 33.25 39.2552 33.7188 39.2552 34.2812V35.0312C38.974 35.125 38.6927 35.1719 38.4583 35.3125C37.6146 35.6875 36.8177 36.3438 36.6302 37.375C36.4427 38.4531 36.8646 39.4375 37.8021 40C38.4583 40.4219 39.349 40.7031 40.0521 40.8906C40.1458 40.9375 40.2865 40.9375 40.3802 40.9844C40.9427 41.125 41.5052 41.3125 41.974 41.5938C42.5365 41.9688 42.3021 42.6719 41.7396 42.9062C41.3177 43.0469 40.6615 43.1406 39.8646 43C39.3021 42.9062 38.7865 42.7188 38.2708 42.5781C38.1302 42.5312 38.0365 42.4844 37.8958 42.4375C37.3802 42.25 36.8177 42.5312 36.6302 43.0938C36.4427 43.6094 36.724 44.1719 37.2396 44.3594C37.9427 44.5938 38.599 44.7812 39.2552 44.9688V45.7656C39.2552 46.3281 39.724 46.7969 40.2865 46.7969C40.849 46.7969 41.2708 46.3281 41.2708 45.7656V45.0625C41.6927 45.0156 42.1146 44.9219 42.4896 44.7812C43.3333 44.4062 44.0833 43.7031 44.2708 42.6719C44.4583 41.5938 44.0365 40.5625 43.1458 39.9531C42.4427 39.4844 41.5052 39.2031 40.7552 38.9688C40.6615 38.9688 40.5677 38.9219 40.4271 38.9219C39.9115 38.7344 39.349 38.5938 38.8802 38.3125C38.3177 37.9375 38.7396 37.375 39.2552 37.1875C39.8177 36.9062 40.5208 36.8594 41.1771 37C41.5052 37.0469 41.8333 37.1406 42.1615 37.2344C42.2083 37.2344 42.3021 37.2812 42.349 37.2812C42.9115 37.4219 43.474 37.1406 43.6146 36.5781C43.7552 36.0625 43.4271 35.5 42.9115 35.3125C42.8177 35.3125 42.724 35.2656 42.6302 35.2656C42.2083 35.125 41.7396 34.9844 41.2708 34.9375V34.2812Z"/>
</mask>
<path d="M40.3333 52C36.0208 52 32.0833 49.75 29.9271 46C27.7708 42.2969 27.7708 37.75 29.9271 34C32.0833 30.2969 36.0208 28 40.3333 28C44.599 28 48.5365 30.2969 50.6927 34C52.849 37.75 52.849 42.2969 50.6927 46C48.5365 49.75 44.599 52 40.3333 52ZM41.2708 34.2812C41.2708 33.7188 40.849 33.25 40.2865 33.25C39.724 33.25 39.2552 33.7188 39.2552 34.2812V35.0312C38.974 35.125 38.6927 35.1719 38.4583 35.3125C37.6146 35.6875 36.8177 36.3438 36.6302 37.375C36.4427 38.4531 36.8646 39.4375 37.8021 40C38.4583 40.4219 39.349 40.7031 40.0521 40.8906C40.1458 40.9375 40.2865 40.9375 40.3802 40.9844C40.9427 41.125 41.5052 41.3125 41.974 41.5938C42.5365 41.9688 42.3021 42.6719 41.7396 42.9062C41.3177 43.0469 40.6615 43.1406 39.8646 43C39.3021 42.9062 38.7865 42.7188 38.2708 42.5781C38.1302 42.5312 38.0365 42.4844 37.8958 42.4375C37.3802 42.25 36.8177 42.5312 36.6302 43.0938C36.4427 43.6094 36.724 44.1719 37.2396 44.3594C37.9427 44.5938 38.599 44.7812 39.2552 44.9688V45.7656C39.2552 46.3281 39.724 46.7969 40.2865 46.7969C40.849 46.7969 41.2708 46.3281 41.2708 45.7656V45.0625C41.6927 45.0156 42.1146 44.9219 42.4896 44.7812C43.3333 44.4062 44.0833 43.7031 44.2708 42.6719C44.4583 41.5938 44.0365 40.5625 43.1458 39.9531C42.4427 39.4844 41.5052 39.2031 40.7552 38.9688C40.6615 38.9688 40.5677 38.9219 40.4271 38.9219C39.9115 38.7344 39.349 38.5938 38.8802 38.3125C38.3177 37.9375 38.7396 37.375 39.2552 37.1875C39.8177 36.9062 40.5208 36.8594 41.1771 37C41.5052 37.0469 41.8333 37.1406 42.1615 37.2344C42.2083 37.2344 42.3021 37.2812 42.349 37.2812C42.9115 37.4219 43.474 37.1406 43.6146 36.5781C43.7552 36.0625 43.4271 35.5 42.9115 35.3125C42.8177 35.3125 42.724 35.2656 42.6302 35.2656C42.2083 35.125 41.7396 34.9844 41.2708 34.9375V34.2812Z" fill="#1C2024"/>
<path d="M29.9271 46L31.6609 45.003L31.6554 44.9936L29.9271 46ZM29.9271 34L28.1987 32.9936L28.1933 33.0031L29.9271 34ZM50.6927 34L52.4266 33.003L52.4211 32.9936L50.6927 34ZM50.6927 46L48.9643 44.9936L48.9589 45.0031L50.6927 46ZM39.2552 35.0312L39.8877 36.9286L41.2552 36.4728V35.0312H39.2552ZM38.4583 35.3125L39.2706 37.1401L39.3824 37.0904L39.4873 37.0275L38.4583 35.3125ZM36.6302 37.375L34.6625 37.0172L34.6611 37.0248L34.6598 37.0323L36.6302 37.375ZM37.8021 40L38.8836 38.3176L38.8576 38.3009L38.8311 38.285L37.8021 40ZM40.0521 40.8906L40.9465 39.1018L40.7643 39.0107L40.5674 38.9582L40.0521 40.8906ZM40.3802 40.9844L39.4858 42.7732L39.6822 42.8714L39.8951 42.9247L40.3802 40.9844ZM41.974 41.5938L43.0834 39.9296L43.0438 39.9033L43.003 39.8788L41.974 41.5938ZM41.7396 42.9062L42.372 44.8036L42.4414 44.7805L42.5088 44.7524L41.7396 42.9062ZM39.8646 43L40.2122 41.0304L40.2028 41.0288L40.1934 41.0272L39.8646 43ZM38.2708 42.5781L37.6384 44.4755L37.6911 44.493L37.7446 44.5077L38.2708 42.5781ZM37.8958 42.4375L37.2124 44.3171L37.2378 44.3263L37.2634 44.3349L37.8958 42.4375ZM36.6302 43.0938L38.5098 43.7772L38.519 43.7518L38.5276 43.7262L36.6302 43.0938ZM37.2396 44.3594L36.5561 46.239L36.5815 46.2482L36.6071 46.2567L37.2396 44.3594ZM39.2552 44.9688H41.2552V43.4601L39.8047 43.0457L39.2552 44.9688ZM41.2708 45.0625L41.05 43.0747L39.2708 43.2724V45.0625H41.2708ZM42.4896 44.7812L43.1918 46.6539L43.2475 46.633L43.3019 46.6089L42.4896 44.7812ZM44.2708 42.6719L46.2386 43.0296L46.24 43.0221L46.2413 43.0146L44.2708 42.6719ZM43.1458 39.9531L44.2752 38.3025L44.2653 38.2957L44.2552 38.289L43.1458 39.9531ZM40.7552 38.9688L41.3518 37.0598L41.0604 36.9688H40.7552V38.9688ZM40.4271 38.9219L39.7436 40.8015L40.0747 40.9219H40.4271V38.9219ZM38.8802 38.3125L37.7708 39.9766L37.8104 40.003L37.8512 40.0275L38.8802 38.3125ZM39.2552 37.1875L39.9387 39.0671L40.0468 39.0278L40.1496 38.9764L39.2552 37.1875ZM41.1771 37L40.758 38.9556L40.8257 38.9701L40.8943 38.9799L41.1771 37ZM42.1615 37.2344L41.612 39.1574L41.8814 39.2344H42.1615V37.2344ZM42.349 37.2812L42.834 35.341L42.5952 35.2812H42.349V37.2812ZM43.6146 36.5781L41.6851 36.0519L41.6795 36.0724L41.6743 36.0931L43.6146 36.5781ZM42.9115 35.3125L43.595 33.4329L43.2638 33.3125H42.9115V35.3125ZM42.6302 35.2656L41.9978 37.163L42.3057 37.2656H42.6302V35.2656ZM41.2708 34.9375H39.2708V36.7475L41.0718 36.9276L41.2708 34.9375ZM40.3333 50C36.7288 50 33.4565 48.1258 31.6609 45.0031L28.1933 46.9969C30.7102 51.3742 35.3128 54 40.3333 54V50ZM31.6554 44.9936C29.8636 41.9164 29.8573 38.1336 31.6609 34.9969L28.1933 33.0031C25.6844 37.3664 25.678 42.6773 28.1987 47.0064L31.6554 44.9936ZM31.6554 35.0064C33.4576 31.9114 36.7409 30 40.3333 30V26C35.3008 26 30.7091 28.6824 28.1987 32.9936L31.6554 35.0064ZM40.3333 30C43.8746 30 47.16 31.9076 48.9644 35.0064L52.4211 32.9936C49.9129 28.6862 45.3234 26 40.3333 26V30ZM48.9589 34.9969C50.7625 38.1336 50.7562 41.9164 48.9644 44.9936L52.4211 47.0064C54.9418 42.6773 54.9354 37.3664 52.4265 33.0031L48.9589 34.9969ZM48.9589 45.0031C47.1612 48.1296 43.8866 50 40.3333 50V54C45.3113 54 49.9118 51.3704 52.4265 46.9969L48.9589 45.0031ZM43.2708 34.2812C43.2708 32.7377 42.0732 31.25 40.2865 31.25V35.25C39.6248 35.25 39.2708 34.6998 39.2708 34.2812H43.2708ZM40.2865 31.25C38.6194 31.25 37.2552 32.6142 37.2552 34.2812H41.2552C41.2552 34.8233 40.8285 35.25 40.2865 35.25V31.25ZM37.2552 34.2812V35.0312H41.2552V34.2812H37.2552ZM38.6228 33.1339C38.4824 33.1807 38.553 33.1508 38.2569 33.2409C38.0699 33.2979 37.7566 33.4011 37.4294 33.5975L39.4873 37.0275C39.3944 37.0832 39.339 37.0928 39.4215 37.0676C39.4654 37.0543 39.5036 37.0438 39.5918 37.0188C39.6672 36.9973 39.773 36.9669 39.8877 36.9286L38.6228 33.1339ZM37.6461 33.4849C36.5044 33.9923 35.0178 35.0629 34.6625 37.0172L38.598 37.7328C38.6116 37.6578 38.6438 37.5833 38.737 37.4868C38.8434 37.3766 39.0197 37.2516 39.2706 37.1401L37.6461 33.4849ZM34.6598 37.0323C34.3381 38.8823 35.0902 40.7052 36.7731 41.715L38.8311 38.285C38.6997 38.2062 38.6485 38.1289 38.6239 38.073C38.5975 38.0133 38.5687 37.9016 38.6006 37.7177L34.6598 37.0323ZM36.7206 41.6824C37.6599 42.2862 38.8152 42.6307 39.5368 42.8231L40.5674 38.9582C39.8827 38.7756 39.2568 38.5576 38.8836 38.3176L36.7206 41.6824ZM39.1577 42.6795C39.3513 42.7763 39.5226 42.8268 39.6207 42.8526C39.7167 42.8779 39.8061 42.8951 39.8239 42.8987C39.8647 42.9068 39.8339 42.9013 39.7936 42.8907C39.7512 42.8795 39.6325 42.8466 39.4858 42.7732L41.2746 39.1955C41.0811 39.0987 40.9097 39.0482 40.8116 39.0224C40.7156 38.9971 40.6262 38.9799 40.6084 38.9763C40.5676 38.9682 40.5984 38.9737 40.6387 38.9843C40.6811 38.9955 40.7998 39.0284 40.9465 39.1018L39.1577 42.6795ZM39.8951 42.9247C40.3806 43.046 40.7232 43.1757 40.945 43.3087L43.003 39.8788C42.2872 39.4493 41.5049 39.204 40.8653 39.0441L39.8951 42.9247ZM40.8646 43.2579C40.7027 43.1499 40.5105 42.9546 40.3937 42.6592C40.2791 42.3691 40.2767 42.0818 40.3306 41.8497C40.4312 41.4173 40.7139 41.167 40.9704 41.0601L42.5088 44.7524C43.3278 44.4112 44.0089 43.6921 44.2267 42.7558C44.4734 41.6948 44.0599 40.5807 43.0834 39.9296L40.8646 43.2579ZM41.1071 41.0089C40.9998 41.0447 40.6804 41.1131 40.2122 41.0304L39.517 44.9696C40.6426 45.1682 41.6356 45.0491 42.372 44.8036L41.1071 41.0089ZM40.1934 41.0272C39.7581 40.9547 39.5256 40.8473 38.7971 40.6486L37.7446 44.5077C38.0473 44.5902 38.8461 44.8578 39.5358 44.9728L40.1934 41.0272ZM38.9033 40.6808C38.8956 40.6782 38.8871 40.6753 38.8261 40.6509C38.7699 40.6284 38.6612 40.5844 38.5283 40.5401L37.2634 44.3349C37.2711 44.3374 37.2796 44.3404 37.3406 44.3648C37.3967 44.3872 37.5055 44.4312 37.6384 44.4755L38.9033 40.6808ZM38.5793 40.5579C36.9215 39.9551 35.2473 40.9178 34.7329 42.4613L38.5276 43.7262C38.3881 44.1447 37.8389 44.5449 37.2124 44.3171L38.5793 40.5579ZM34.7506 42.4103C34.1643 44.0227 35.0621 45.6957 36.5561 46.239L37.9231 42.4798C38.3858 42.6481 38.7211 43.1961 38.5098 43.7772L34.7506 42.4103ZM36.6071 46.2567C37.3575 46.5069 38.0539 46.7055 38.7058 46.8918L39.8047 43.0457C39.144 42.857 38.528 42.6806 37.872 42.462L36.6071 46.2567ZM37.2552 44.9688V45.7656H41.2552V44.9688H37.2552ZM37.2552 45.7656C37.2552 47.4327 38.6194 48.7969 40.2865 48.7969V44.7969C40.8285 44.7969 41.2552 45.2236 41.2552 45.7656H37.2552ZM40.2865 48.7969C42.0732 48.7969 43.2708 47.3091 43.2708 45.7656H39.2708C39.2708 45.3471 39.6248 44.7969 40.2865 44.7969V48.7969ZM43.2708 45.7656V45.0625H39.2708V45.7656H43.2708ZM41.4917 47.0503C42.0504 46.9882 42.6376 46.8617 43.1918 46.6539L41.7873 42.9086C41.5916 42.982 41.335 43.0431 41.05 43.0747L41.4917 47.0503ZM43.3019 46.6089C44.5552 46.0519 45.8991 44.8969 46.2386 43.0296L42.3031 42.3141C42.2676 42.5094 42.1115 42.7606 41.6773 42.9536L43.3019 46.6089ZM46.2413 43.0146C46.5586 41.1899 45.8333 39.3686 44.2752 38.3025L42.0165 41.6037C42.2396 41.7564 42.3581 41.9976 42.3004 42.3292L46.2413 43.0146ZM44.2552 38.289C43.2625 37.6272 42.0125 37.2663 41.3518 37.0598L40.1587 40.8777C40.998 41.14 41.6229 41.3415 42.0364 41.6172L44.2552 38.289ZM40.7552 36.9688C40.8955 36.9688 41.0008 36.9862 41.0419 36.9937C41.0633 36.9976 41.077 37.0006 41.0751 37.0002C41.0623 36.9974 41.0759 37.0003 41.0426 36.9929C40.957 36.9739 40.724 36.9219 40.4271 36.9219V40.9219C40.2708 40.9219 40.155 40.8933 40.1749 40.8977C40.1786 40.8985 40.1817 40.8992 40.19 40.9011C40.1968 40.9026 40.2076 40.905 40.2195 40.9076C40.2426 40.9127 40.2809 40.9209 40.3264 40.9292C40.4159 40.9454 40.568 40.9688 40.7552 40.9688V36.9688ZM41.1106 37.0423C40.3175 36.7539 40.1588 36.7473 39.9092 36.5975L37.8512 40.0275C38.5392 40.4402 39.5054 40.7148 39.7436 40.8015L41.1106 37.0423ZM39.9896 36.6484C40.1371 36.7467 40.4184 36.9952 40.5496 37.4469C40.6815 37.901 40.5845 38.2953 40.4719 38.5337C40.2877 38.9237 40.0304 39.0337 39.9387 39.0671L38.5717 35.3079C37.9644 35.5288 37.2383 36.0138 36.8549 36.8257C36.6427 37.275 36.5135 37.8919 36.7084 38.5629C36.9026 39.2314 37.3421 39.6908 37.7708 39.9766L39.9896 36.6484ZM40.1496 38.9764C40.2169 38.9427 40.4375 38.8869 40.758 38.9556L41.5962 35.0444C40.6041 34.8318 39.4186 34.8698 38.3608 35.3986L40.1496 38.9764ZM40.8943 38.9799C41.0636 39.0041 41.2589 39.0565 41.612 39.1574L42.7109 35.3113C42.4078 35.2247 41.9468 35.0897 41.4599 35.0201L40.8943 38.9799ZM42.1615 39.2344C42.0825 39.2344 42.0149 39.2295 41.9621 39.224C41.9089 39.2184 41.8634 39.2113 41.8277 39.2049C41.7587 39.1925 41.7057 39.1789 41.6777 39.1712C41.6482 39.1632 41.6272 39.1565 41.621 39.1545C41.6152 39.1527 41.6117 39.1515 41.6228 39.1552C41.6293 39.1574 41.6504 39.1644 41.6733 39.1717C41.6968 39.1792 41.7347 39.191 41.7803 39.2035C41.8244 39.2155 41.8927 39.2328 41.976 39.2478C42.0189 39.2555 42.0712 39.2635 42.131 39.2698C42.1903 39.276 42.2642 39.2812 42.349 39.2812V35.2812C42.4279 35.2812 42.4955 35.2861 42.5483 35.2916C42.6016 35.2972 42.647 35.3043 42.6827 35.3107C42.7518 35.3231 42.8047 35.3368 42.8327 35.3444C42.8622 35.3524 42.8832 35.3591 42.8895 35.3611C42.8952 35.3629 42.8987 35.3641 42.8877 35.3604C42.8811 35.3583 42.86 35.3512 42.8371 35.3439C42.8136 35.3364 42.7758 35.3246 42.7302 35.3122C42.686 35.3001 42.6177 35.2828 42.5344 35.2678C42.4916 35.2602 42.4392 35.2521 42.3794 35.2458C42.3201 35.2396 42.2463 35.2344 42.1615 35.2344V39.2344ZM41.8639 39.2215C43.3241 39.5866 45.1048 38.8633 45.5549 37.0632L41.6743 36.0931C41.7447 35.8116 41.9403 35.5678 42.1918 35.4324C42.4274 35.3055 42.6606 35.2976 42.834 35.341L41.8639 39.2215ZM45.5441 37.1044C45.992 35.4623 44.9646 33.931 43.595 33.4329L42.228 37.1921C42.0145 37.1145 41.8606 36.9705 41.7672 36.8049C41.6721 36.6363 41.5993 36.3664 41.6851 36.0519L45.5441 37.1044ZM42.9115 33.3125C43.0514 33.3125 43.1582 33.3298 43.2097 33.3394C43.2549 33.3479 43.2896 33.3572 43.2559 33.3488C43.2427 33.3455 43.1611 33.3245 43.0691 33.3072C42.9707 33.2888 42.8171 33.2656 42.6302 33.2656V37.2656C42.4902 37.2656 42.3835 37.2484 42.332 37.2387C42.2868 37.2302 42.2521 37.2209 42.2858 37.2293C42.299 37.2326 42.3806 37.2537 42.4726 37.2709C42.571 37.2894 42.7246 37.3125 42.9115 37.3125V33.3125ZM43.2627 33.3683C42.8213 33.2211 42.1742 33.0179 41.4699 32.9474L41.0718 36.9276C41.305 36.9509 41.5954 37.0289 41.9978 37.163L43.2627 33.3683ZM43.2708 34.9375V34.2812H39.2708V34.9375H43.2708Z" fill="#E6EAF2" mask="url(#path-2-outside-1_4695_29383)"/>
</svg>
