<svg width="21" height="20" viewBox="0 0 21 20" fill="none" xmlns="http://www.w3.org/2000/svg">
<mask id="mask0_3610_46568" style="mask-type:luminance" maskUnits="userSpaceOnUse" x="0" y="0" width="21" height="20">
<path d="M20.5547 0H0.554688V20H20.5547V0Z" fill="white"/>
</mask>
<g mask="url(#mask0_3610_46568)">
<path d="M20.1547 10.2273C20.1547 9.51822 20.0911 8.83642 19.9729 8.18182H10.5547V12.05H15.9365C15.7047 13.3 15.0002 14.3591 13.9411 15.0682V17.5773H17.1729C19.0638 15.8364 20.1547 13.2727 20.1547 10.2273Z" fill="#4285F4"/>
<path d="M10.5547 20C13.2547 20 15.5183 19.1045 17.1728 17.5773L13.941 15.0682C13.0456 15.6682 11.9001 16.0227 10.5547 16.0227C7.95009 16.0227 5.74559 14.2636 4.95919 11.9H1.61829V14.4909C3.26379 17.7591 6.64559 20 10.5547 20Z" fill="#34A853"/>
<path d="M4.95919 11.9C4.75919 11.3 4.64559 10.6591 4.64559 9.99999C4.64559 9.34089 4.75919 8.69999 4.95919 8.09999V5.50909H1.61829C0.941087 6.85909 0.554688 8.38639 0.554688 9.99999C0.554688 11.6136 0.941087 13.1409 1.61829 14.4909L4.95919 11.9Z" fill="#FBBC04"/>
<path d="M10.5547 3.9773C12.0228 3.9773 13.341 4.4818 14.3774 5.4727L17.2456 2.6045C15.5138 0.9909 13.2501 0 10.5547 0C6.64559 0 3.26379 2.2409 1.61829 5.5091L4.95919 8.1C5.74559 5.7364 7.95009 3.9773 10.5547 3.9773Z" fill="#E94235"/>
</g>
</svg>
