<svg width="24" height="24" viewBox="0 0 24 24" fill="none" xmlns="http://www.w3.org/2000/svg">
<g id="Abstract / hamburger-menu-2">
<rect width="24" height="24" fill="white" fill-opacity="0.01"/>
<path id="Vector" fill-rule="evenodd" clip-rule="evenodd" d="M3.09998 7.3C3.09998 6.85818 3.45815 6.5 3.89998 6.5H20.1C20.5417 6.5 20.9 6.85818 20.9 7.3C20.9 7.74182 20.5417 8.1 20.1 8.1H3.89998C3.45815 8.1 3.09998 7.74182 3.09998 7.3ZM3.09998 16.7C3.09998 16.2582 3.45815 15.9 3.89998 15.9H20.1C20.5417 15.9 20.9 16.2582 20.9 16.7C20.9 17.1418 20.5417 17.5 20.1 17.5H3.89998C3.45815 17.5 3.09998 17.1418 3.09998 16.7Z" fill="#E6EAF2"/>
</g>
</svg>
