<svg width="36" height="36" viewBox="0 0 36 36" fill="none" xmlns="http://www.w3.org/2000/svg">
<path d="M13.875 6C14.9062 6 15.75 6.84375 15.75 7.875V14.8594C16.125 14.4844 16.6406 14.25 17.25 14.25C18.4219 14.25 19.4062 15.1875 19.4531 16.3594C19.875 15.9844 20.3906 15.75 21 15.75C22.1719 15.75 23.1562 16.6875 23.2031 17.8594C23.625 17.4844 24.1406 17.25 24.75 17.25C25.9688 17.25 27 18.2812 27 19.5V21V24C27 27.3281 24.2812 30 21 30H15.4219C13.6875 30 12 29.3906 10.6406 28.2656L10.4062 28.0781C9 26.9062 8.25 25.2188 8.25 23.4375V21.6562C8.25 20.7656 8.625 19.9219 9.32812 19.3594L10.2188 18.6094C10.3125 18.5625 10.4062 18.4688 10.5 18.4219V21C10.5 21.4219 10.8281 21.75 11.25 21.75C11.625 21.75 12 21.4219 12 21V17.5781V17.25V7.875C12 6.84375 12.7969 6 13.875 6Z" fill="#A8BAEF"/>
</svg>
