<svg width="25" height="24" viewBox="0 0 25 24" fill="none" xmlns="http://www.w3.org/2000/svg">
<path d="M17.5146 8.28125L13.7646 12.0312L17.4834 15.75C17.7959 16.0312 17.7959 16.5 17.4834 16.7812C17.2021 17.0938 16.7334 17.0938 16.4521 16.7812L12.7021 13.0625L8.9834 16.7812C8.70215 17.0938 8.2334 17.0938 7.95215 16.7812C7.63965 16.5 7.63965 16.0312 7.95215 15.7188L11.6709 12L7.95215 8.28125C7.63965 8 7.63965 7.53125 7.95215 7.21875C8.2334 6.9375 8.70215 6.9375 9.01465 7.21875L12.7334 10.9688L16.4521 7.25C16.7334 6.9375 17.2021 6.9375 17.5146 7.25C17.7959 7.53125 17.7959 8 17.5146 8.28125Z" fill="#A8BAEF"/>
</svg>
