<svg width="17" height="16" viewBox="0 0 17 16" fill="none" xmlns="http://www.w3.org/2000/svg">
<path d="M10.9209 11.25H6.5459C6.27246 10.4023 5.72559 9.63672 5.17871 8.89844C5.04199 8.70703 4.90527 8.51562 4.76855 8.32422C4.22168 7.53125 3.9209 6.60156 3.9209 5.5625C3.9209 2.91016 6.05371 0.75 8.7334 0.75C11.3857 0.75 13.5459 2.91016 13.5459 5.58984C13.5459 6.60156 13.2178 7.53125 12.6709 8.32422C12.5342 8.51562 12.3975 8.70703 12.2607 8.89844C11.7139 9.63672 11.167 10.4023 10.9209 11.25ZM8.7334 14.75C7.50293 14.75 6.5459 13.793 6.5459 12.5625V12.125H10.9209V12.5625C10.9209 13.793 9.93652 14.75 8.7334 14.75ZM6.5459 5.5625C6.5459 4.35938 7.50293 3.375 8.7334 3.375C8.95215 3.375 9.1709 3.18359 9.1709 2.9375C9.1709 2.71875 8.95215 2.5 8.7334 2.5C7.03809 2.5 5.6709 3.89453 5.6709 5.5625C5.6709 5.80859 5.8623 6 6.1084 6C6.32715 6 6.5459 5.80859 6.5459 5.5625Z" fill="#525E7E"/>
</svg>
