<svg width="20" height="20" viewBox="0 0 20 20" fill="none" xmlns="http://www.w3.org/2000/svg">
<path d="M15.25 3.625C15.7148 3.625 16.125 4.03516 16.125 4.52734V15C16.125 15.4922 15.7148 15.875 15.25 15.875H4.72266C4.25781 15.875 3.875 15.4922 3.875 15V4.52734C3.875 4.03516 4.25781 3.625 4.72266 3.625H15.25ZM7.56641 14.125V8.30078H5.76172V14.125H7.56641ZM6.66406 7.48047C7.23828 7.48047 7.70312 7.01562 7.70312 6.44141C7.70312 5.86719 7.23828 5.375 6.66406 5.375C6.0625 5.375 5.59766 5.86719 5.59766 6.44141C5.59766 7.01562 6.0625 7.48047 6.66406 7.48047ZM14.375 14.125V10.9258C14.375 9.36719 14.0195 8.13672 12.1875 8.13672C11.3125 8.13672 10.7109 8.62891 10.4648 9.09375H10.4375V8.30078H8.71484V14.125H10.5195V11.2539C10.5195 10.4883 10.6562 9.75 11.6133 9.75C12.543 9.75 12.543 10.625 12.543 11.2812V14.125H14.375Z" fill="#A8BAEF"/>
</svg>
