<svg width="1440" height="122" viewBox="0 0 1440 122" fill="none" xmlns="http://www.w3.org/2000/svg">
<rect width="1440" height="420" transform="translate(0 -298)" fill="#0F141B"/>
<path d="M40 -291H1400V107C1400 111.418 1396.42 115 1392 115H44C41.7909 115 40 113.209 40 111V-291Z" fill="#131924"/>
<path d="M102 -266H1338V82C1338 86.4183 1334.42 90 1330 90H106C103.791 90 102 88.2091 102 86V-266Z" fill="#192131"/>
<path d="M157 -243H1283V59C1283 63.4183 1279.42 67 1275 67H161C158.791 67 157 65.2091 157 63V-243Z" fill="#1C2A45"/>
<g clip-path="url(#clip0_3608_39170)">
<path d="M221 -223H1219V39C1219 43.4183 1215.42 47 1211 47H225C222.791 47 221 45.2091 221 43V-223Z" fill="#293A5E"/>
</g>
<g clip-path="url(#clip1_3608_39170)">
<path d="M221 -223H1219V39C1219 43.4183 1215.42 47 1211 47H225C222.791 47 221 45.2091 221 43V-223Z" fill="#293A5E"/>
</g>
<g clip-path="url(#clip2_3608_39170)">
<path d="M277 -206H1163V22C1163 26.4183 1159.42 30 1155 30H281C278.791 30 277 28.2091 277 26V-206Z" fill="#385182"/>
</g>
<g clip-path="url(#clip3_3608_39170)">
<path d="M322 -193H1118V9C1118 13.4183 1114.42 17 1110 17H326C323.791 17 322 15.2091 322 13V-193Z" fill="#4C679B"/>
</g>
<g clip-path="url(#clip4_3608_39170)">
<path d="M369 -183H1071V-1C1071 3.41827 1067.42 7 1063 7H373C370.791 7 369 5.20914 369 3V-183Z" fill="#6C82AD"/>
</g>
<defs>
<clipPath id="clip0_3608_39170">
<path d="M221 -223H1219V39C1219 43.4183 1215.42 47 1211 47H225C222.791 47 221 45.2091 221 43V-223Z" fill="white"/>
</clipPath>
<clipPath id="clip1_3608_39170">
<path d="M221 -223H1219V39C1219 43.4183 1215.42 47 1211 47H225C222.791 47 221 45.2091 221 43V-223Z" fill="white"/>
</clipPath>
<clipPath id="clip2_3608_39170">
<path d="M277 -206H1163V22C1163 26.4183 1159.42 30 1155 30H281C278.791 30 277 28.2091 277 26V-206Z" fill="white"/>
</clipPath>
<clipPath id="clip3_3608_39170">
<path d="M322 -193H1118V9C1118 13.4183 1114.42 17 1110 17H326C323.791 17 322 15.2091 322 13V-193Z" fill="white"/>
</clipPath>
<clipPath id="clip4_3608_39170">
<path d="M369 -183H1071V-1C1071 3.41827 1067.42 7 1063 7H373C370.791 7 369 5.20914 369 3V-183Z" fill="white"/>
</clipPath>
</defs>
</svg>
