<svg width="20" height="20" viewBox="0 0 20 20" fill="none" xmlns="http://www.w3.org/2000/svg">
<path d="M15.7656 11.0391L12.7656 14.0391C12.4844 14.3438 11.9922 14.3438 11.7109 14.0391C11.4062 13.7578 11.4062 13.2656 11.7109 12.9844L13.4219 11.25H8.5C8.07812 11.25 7.75 10.9219 7.75 10.5C7.75 10.1016 8.07812 9.75 8.5 9.75H13.4219L11.7109 8.03906C11.4062 7.75781 11.4062 7.26562 11.7109 6.98438C11.9922 6.67969 12.4844 6.67969 12.7656 6.98438L15.7656 9.98438C16.0703 10.2656 16.0703 10.7578 15.7656 11.0391ZM7.75 6.75H6.25C5.82812 6.75 5.5 7.10156 5.5 7.5V13.5C5.5 13.9219 5.82812 14.25 6.25 14.25H7.75C8.14844 14.25 8.5 14.6016 8.5 15C8.5 15.4219 8.14844 15.75 7.75 15.75H6.25C5.00781 15.75 4 14.7422 4 13.5V7.5C4 6.25781 5.00781 5.25 6.25 5.25H7.75C8.14844 5.25 8.5 5.60156 8.5 6C8.5 6.42188 8.14844 6.75 7.75 6.75Z" fill="#A8BAEF"/>
</svg>
