<svg width="17" height="16" viewBox="0 0 17 16" fill="none" xmlns="http://www.w3.org/2000/svg">
<path d="M7.46777 3.50781L7.7959 2.61719C7.81934 2.54688 7.88965 2.5 7.9834 2.5C8.05371 2.5 8.12402 2.54688 8.14746 2.61719L8.47559 3.50781L9.36621 3.83594C9.43652 3.85938 9.4834 3.92969 9.4834 4C9.4834 4.09375 9.43652 4.16406 9.36621 4.1875L8.47559 4.51562L8.14746 5.38281C8.12402 5.45312 8.05371 5.5 7.9834 5.5C7.88965 5.5 7.81934 5.45312 7.7959 5.38281L7.46777 4.51562L6.60059 4.1875C6.53027 4.16406 6.4834 4.09375 6.4834 4C6.4834 3.92969 6.53027 3.85938 6.60059 3.83594L7.46777 3.50781ZM3.06152 11.7812L11.9912 2.85156C12.4365 2.40625 13.1396 2.40625 13.585 2.85156L14.3818 3.64844C14.8271 4.09375 14.8271 4.79688 14.3818 5.24219L5.45215 14.1719C5.00684 14.6172 4.30371 14.6172 3.8584 14.1719L3.06152 13.375C2.61621 12.9297 2.61621 12.2266 3.06152 11.7812ZM13.3271 4.44531L12.7881 3.90625L10.3271 6.36719L10.8662 6.90625L13.3271 4.44531ZM2.14746 5.26562L3.4834 4.75L3.97559 3.4375C3.99902 3.32031 4.11621 3.25 4.2334 3.25C4.32715 3.25 4.44434 3.32031 4.46777 3.4375L4.9834 4.75L6.2959 5.26562C6.41309 5.28906 6.4834 5.40625 6.4834 5.5C6.4834 5.61719 6.41309 5.73438 6.2959 5.75781L4.9834 6.25L4.46777 7.58594C4.44434 7.67969 4.32715 7.75 4.2334 7.75C4.11621 7.75 3.99902 7.67969 3.97559 7.58594L3.4834 6.25L2.14746 5.75781C2.05371 5.73438 1.9834 5.61719 1.9834 5.5C1.9834 5.40625 2.05371 5.28906 2.14746 5.26562ZM10.3975 11.2656L11.7334 10.75L12.2256 9.4375C12.249 9.32031 12.3662 9.25 12.4834 9.25C12.5771 9.25 12.6943 9.32031 12.7178 9.4375L13.2334 10.75L14.5459 11.2656C14.6631 11.2891 14.7334 11.4062 14.7334 11.5C14.7334 11.6172 14.6631 11.7344 14.5459 11.7578L13.2334 12.25L12.7178 13.5859C12.6943 13.6797 12.5771 13.75 12.4834 13.75C12.3662 13.75 12.249 13.6797 12.2256 13.5859L11.7334 12.25L10.3975 11.7578C10.3037 11.7344 10.2334 11.6172 10.2334 11.5C10.2334 11.4062 10.3037 11.2891 10.3975 11.2656Z" fill="white"/>
</svg>
