<svg width="25" height="24" viewBox="0 0 25 24" fill="none" xmlns="http://www.w3.org/2000/svg">
<rect x="0.733398" width="24" height="24" rx="12" fill="#004CB3"/>
<path d="M11.2568 5.92578L11.6396 4.88672C11.667 4.80469 11.749 4.75 11.8584 4.75C11.9404 4.75 12.0225 4.80469 12.0498 4.88672L12.4326 5.92578L13.4717 6.30859C13.5537 6.33594 13.6084 6.41797 13.6084 6.5C13.6084 6.60938 13.5537 6.69141 13.4717 6.71875L12.4326 7.10156L12.0498 8.11328C12.0225 8.19531 11.9404 8.25 11.8584 8.25C11.749 8.25 11.667 8.19531 11.6396 8.11328L11.2568 7.10156L10.2451 6.71875C10.1631 6.69141 10.1084 6.60938 10.1084 6.5C10.1084 6.41797 10.1631 6.33594 10.2451 6.30859L11.2568 5.92578ZM6.11621 15.5781L16.5342 5.16016C17.0537 4.64062 17.874 4.64062 18.3936 5.16016L19.3232 6.08984C19.8428 6.60938 19.8428 7.42969 19.3232 7.94922L8.90527 18.3672C8.38574 18.8867 7.56543 18.8867 7.0459 18.3672L6.11621 17.4375C5.59668 16.918 5.59668 16.0977 6.11621 15.5781ZM18.0928 7.01953L17.4639 6.39062L14.5928 9.26172L15.2217 9.89062L18.0928 7.01953ZM5.0498 7.97656L6.6084 7.375L7.18262 5.84375C7.20996 5.70703 7.34668 5.625 7.4834 5.625C7.59277 5.625 7.72949 5.70703 7.75684 5.84375L8.3584 7.375L9.88965 7.97656C10.0264 8.00391 10.1084 8.14062 10.1084 8.25C10.1084 8.38672 10.0264 8.52344 9.88965 8.55078L8.3584 9.125L7.75684 10.6836C7.72949 10.793 7.59277 10.875 7.4834 10.875C7.34668 10.875 7.20996 10.793 7.18262 10.6836L6.6084 9.125L5.0498 8.55078C4.94043 8.52344 4.8584 8.38672 4.8584 8.25C4.8584 8.14062 4.94043 8.00391 5.0498 7.97656ZM14.6748 14.9766L16.2334 14.375L16.8076 12.8438C16.835 12.707 16.9717 12.625 17.1084 12.625C17.2178 12.625 17.3545 12.707 17.3818 12.8438L17.9834 14.375L19.5146 14.9766C19.6514 15.0039 19.7334 15.1406 19.7334 15.25C19.7334 15.3867 19.6514 15.5234 19.5146 15.5508L17.9834 16.125L17.3818 17.6836C17.3545 17.793 17.2178 17.875 17.1084 17.875C16.9717 17.875 16.835 17.793 16.8076 17.6836L16.2334 16.125L14.6748 15.5508C14.5654 15.5234 14.4834 15.3867 14.4834 15.25C14.4834 15.1406 14.5654 15.0039 14.6748 14.9766Z" fill="white"/>
</svg>
