<svg width="20" height="20" viewBox="0 0 20 20" fill="none" xmlns="http://www.w3.org/2000/svg">
<path d="M5.125 6H14.875C15.4844 6 16 6.51562 16 7.125C16 7.5 15.8125 7.82812 15.5312 8.03906L10.4453 11.8594C10.1641 12.0703 9.8125 12.0703 9.53125 11.8594L4.44531 8.03906C4.16406 7.82812 4 7.5 4 7.125C4 6.51562 4.49219 6 5.125 6ZM4 8.625L9.08594 12.4688C9.625 12.8672 10.3516 12.8672 10.8906 12.4688L16 8.625V13.5C16 14.3438 15.3203 15 14.5 15H5.5C4.65625 15 4 14.3438 4 13.5V8.625Z" fill="#A8BAEF"/>
</svg>
