<svg width="16" height="16" viewBox="0 0 16 16" fill="none" xmlns="http://www.w3.org/2000/svg">
<path d="M8.96875 1V1.03125C9.15625 1.03125 9.375 1.03125 9.5625 1.03125C9.78125 1.0625 9.96875 1.21875 10 1.4375C10.0625 1.65625 9.96875 1.875 9.78125 1.96875C8.09375 2.90625 6.96875 4.71875 6.96875 6.75C6.96875 9.8125 9.4375 12.25 12.4688 12.25C12.7812 12.25 13.0938 12.25 13.4062 12.1875C13.625 12.1562 13.8438 12.25 13.9375 12.4375C14.0312 12.6562 14 12.875 13.8438 13.0312C12.5938 14.25 10.875 15 8.96875 15C5.125 15 2 11.875 2 8C2 4.15625 5.125 1 8.96875 1Z" fill="#A8BAEF"/>
</svg>
