<svg width="16" height="16" viewBox="0 0 16 16" fill="none" xmlns="http://www.w3.org/2000/svg">
<path d="M9.75 0.75H14.125C14.5898 0.75 15 1.16016 15 1.625V6C15 6.49219 14.5898 6.875 14.125 6.875C13.6328 6.875 13.25 6.49219 13.25 6V3.75781L7.72656 9.25391C7.39844 9.60938 6.82422 9.60938 6.49609 9.25391C6.14062 8.92578 6.14062 8.35156 6.49609 8.02344L11.9922 2.5H9.75C9.25781 2.5 8.875 2.11719 8.875 1.625C8.875 1.16016 9.25781 0.75 9.75 0.75ZM3.1875 1.625H6.25C6.71484 1.625 7.125 2.03516 7.125 2.5C7.125 2.99219 6.71484 3.375 6.25 3.375H3.1875C2.94141 3.375 2.75 3.59375 2.75 3.8125V12.5625C2.75 12.8086 2.94141 13 3.1875 13H11.9375C12.1562 13 12.375 12.8086 12.375 12.5625V9.5C12.375 9.03516 12.7578 8.625 13.25 8.625C13.7148 8.625 14.125 9.03516 14.125 9.5V12.5625C14.125 13.793 13.1406 14.75 11.9375 14.75H3.1875C1.95703 14.75 1 13.793 1 12.5625V3.8125C1 2.60938 1.95703 1.625 3.1875 1.625Z" fill="#A8BAEF"/>
</svg>
