<svg width="15" height="15" viewBox="0 0 15 15" fill="none" xmlns="http://www.w3.org/2000/svg">
<path d="M9.4834 0.75H13.8584C14.3232 0.75 14.7334 1.16016 14.7334 1.625V6C14.7334 6.49219 14.3232 6.875 13.8584 6.875C13.3662 6.875 12.9834 6.49219 12.9834 6V3.75781L7.45996 9.25391C7.13184 9.60938 6.55762 9.60938 6.22949 9.25391C5.87402 8.92578 5.87402 8.35156 6.22949 8.02344L11.7256 2.5H9.4834C8.99121 2.5 8.6084 2.11719 8.6084 1.625C8.6084 1.16016 8.99121 0.75 9.4834 0.75ZM2.9209 1.625H5.9834C6.44824 1.625 6.8584 2.03516 6.8584 2.5C6.8584 2.99219 6.44824 3.375 5.9834 3.375H2.9209C2.6748 3.375 2.4834 3.59375 2.4834 3.8125V12.5625C2.4834 12.8086 2.6748 13 2.9209 13H11.6709C11.8896 13 12.1084 12.8086 12.1084 12.5625V9.5C12.1084 9.03516 12.4912 8.625 12.9834 8.625C13.4482 8.625 13.8584 9.03516 13.8584 9.5V12.5625C13.8584 13.793 12.874 14.75 11.6709 14.75H2.9209C1.69043 14.75 0.733398 13.793 0.733398 12.5625V3.8125C0.733398 2.60938 1.69043 1.625 2.9209 1.625Z" fill="#E6EAF2"/>
</svg>
