<svg width="20" height="20" viewBox="0 0 20 20" fill="none" xmlns="http://www.w3.org/2000/svg">
<path d="M4.75 5.25H15.25C16.0703 5.25 16.75 5.92969 16.75 6.75V7.5H3.25V6.75C3.25 5.92969 3.90625 5.25 4.75 5.25ZM16.75 9.75V14.25C16.75 15.0938 16.0703 15.75 15.25 15.75H4.75C3.90625 15.75 3.25 15.0938 3.25 14.25V9.75H16.75ZM5.875 12.75C5.66406 12.75 5.5 12.9375 5.5 13.125C5.5 13.3359 5.66406 13.5 5.875 13.5H7.375C7.5625 13.5 7.75 13.3359 7.75 13.125C7.75 12.9375 7.5625 12.75 7.375 12.75H5.875ZM8.5 13.125C8.5 13.3359 8.66406 13.5 8.875 13.5H11.875C12.0625 13.5 12.25 13.3359 12.25 13.125C12.25 12.9375 12.0625 12.75 11.875 12.75H8.875C8.66406 12.75 8.5 12.9375 8.5 13.125Z" fill="#A8BAEF"/>
</svg>
