<svg width="20" height="20" viewBox="0 0 20 20" fill="none" xmlns="http://www.w3.org/2000/svg">
<path d="M7.84375 5.08594L8.78125 7.33594C8.94531 7.71094 8.85156 8.15625 8.52344 8.41406L7.375 9.375C8.14844 11.0156 9.48438 12.3516 11.125 13.125L12.0859 11.9766C12.3438 11.6484 12.7891 11.5547 13.1641 11.7188L15.4141 12.6562C15.8594 12.8203 16.0703 13.3125 15.9531 13.7578L15.3906 15.8203C15.2734 16.2188 14.9219 16.5 14.5 16.5C8.6875 16.5 4 11.8125 4 6C4 5.57812 4.28125 5.22656 4.67969 5.10938L6.74219 4.54688C7.1875 4.42969 7.67969 4.64062 7.84375 5.08594Z" fill="#A8BAEF"/>
</svg>
