<svg width="20" height="20" viewBox="0 0 20 20" fill="none" xmlns="http://www.w3.org/2000/svg">
<path d="M5.875 5.25H8.125C8.73438 5.25 9.25 5.76562 9.25 6.375V8.625C9.25 9.25781 8.73438 9.75 8.125 9.75H5.875C5.24219 9.75 4.75 9.25781 4.75 8.625V6.375C4.75 5.76562 5.24219 5.25 5.875 5.25ZM5.875 11.25H8.125C8.73438 11.25 9.25 11.7656 9.25 12.375V14.625C9.25 15.2578 8.73438 15.75 8.125 15.75H5.875C5.24219 15.75 4.75 15.2578 4.75 14.625V12.375C4.75 11.7656 5.24219 11.25 5.875 11.25ZM10.75 6.375C10.75 5.76562 11.2422 5.25 11.875 5.25H14.125C14.7344 5.25 15.25 5.76562 15.25 6.375V8.625C15.25 9.25781 14.7344 9.75 14.125 9.75H11.875C11.2422 9.75 10.75 9.25781 10.75 8.625V6.375ZM13 10.875C13.3047 10.875 13.5625 11.1328 13.5625 11.4375V12.9375H15.0625C15.3672 12.9375 15.625 13.1953 15.625 13.5C15.625 13.8281 15.3672 14.0625 15.0625 14.0625H13.5625V15.5625C13.5625 15.8906 13.3047 16.125 13 16.125C12.6719 16.125 12.4375 15.8906 12.4375 15.5625V14.0625H10.9375C10.6094 14.0625 10.375 13.8281 10.375 13.5C10.375 13.1953 10.6094 12.9375 10.9375 12.9375H12.4375V11.4375C12.4375 11.1328 12.6719 10.875 13 10.875Z" fill="#A8BAEF"/>
</svg>
