<svg width="72" height="16" viewBox="0 0 72 16" fill="none" xmlns="http://www.w3.org/2000/svg">
<path d="M9.88672 4.93359L9.53125 3.59375L8.19141 3.23828C8.08203 3.18359 8 3.07422 8 2.9375C8 2.82812 8.08203 2.71875 8.19141 2.66406L9.53125 2.28125L9.88672 0.96875C9.94141 0.859375 10.0508 0.75 10.1875 0.75C10.2969 0.75 10.4062 0.859375 10.4609 0.96875L10.8438 2.28125L12.1562 2.66406C12.2656 2.71875 12.375 2.82812 12.375 2.9375C12.375 3.07422 12.2656 3.18359 12.1562 3.23828L10.8438 3.59375L10.4609 4.93359C10.4062 5.04297 10.2969 5.125 10.1875 5.125C10.0508 5.125 9.94141 5.04297 9.88672 4.93359ZM6.82422 5.07031L8.08203 7.64062L10.9258 8.05078C11.4453 8.13281 11.6641 8.78906 11.2812 9.17188L9.23047 11.168L9.72266 13.9844C9.80469 14.5312 9.25781 14.9414 8.76562 14.6953L6.22266 13.3555L3.70703 14.6953C3.21484 14.9414 2.66797 14.5312 2.75 13.9844L3.24219 11.168L1.19141 9.17188C0.808594 8.78906 1 8.13281 1.54688 8.05078L4.39062 7.64062L5.64844 5.07031C5.89453 4.57812 6.57812 4.57812 6.82422 5.07031ZM12.7031 7.42188L11.6641 7.12109C11.5547 7.09375 11.5 6.98438 11.5 6.875C11.5 6.79297 11.5547 6.68359 11.6641 6.65625L12.7031 6.35547L13.0039 5.31641C13.0312 5.20703 13.1406 5.125 13.25 5.125C13.332 5.125 13.4414 5.20703 13.4688 5.31641L13.7695 6.35547L14.8086 6.65625C14.918 6.68359 15 6.79297 15 6.875C15 6.98438 14.918 7.09375 14.8086 7.12109L13.7695 7.42188L13.4688 8.46094C13.4414 8.57031 13.332 8.625 13.25 8.625C13.1406 8.625 13.0312 8.57031 13.0039 8.46094L12.7031 7.42188ZM21.483 2.81818H22.9545L26.4148 11.2699H26.5341L29.9943 2.81818H31.4659V13H30.3125V5.2642H30.2131L27.0312 13H25.9176L22.7358 5.2642H22.6364V13H21.483V2.81818ZM34.5346 15.8636C34.3358 15.8636 34.1584 15.8471 34.0027 15.8139C33.8469 15.7841 33.7392 15.7543 33.6795 15.7244L33.9778 14.6903C34.2628 14.7633 34.5147 14.7898 34.7335 14.7699C34.9522 14.75 35.1461 14.6522 35.3152 14.4766C35.4875 14.3042 35.6449 14.0241 35.7875 13.6364L36.0062 13.0398L33.1824 5.36364H34.4551L36.563 11.4489H36.6426L38.7505 5.36364H40.0233L36.7818 14.1136C36.6359 14.508 36.4553 14.8345 36.2399 15.093C36.0244 15.3549 35.7742 15.5488 35.4892 15.6747C35.2074 15.8007 34.8893 15.8636 34.5346 15.8636ZM45.6685 13V2.81818H49.1088C49.9076 2.81818 50.5605 2.96236 51.0676 3.25071C51.5781 3.53575 51.9559 3.92188 52.2012 4.40909C52.4464 4.89631 52.5691 5.43987 52.5691 6.03977C52.5691 6.63968 52.4464 7.1849 52.2012 7.67543C51.9592 8.16596 51.5847 8.55705 51.0776 8.84872C50.5705 9.13707 49.9209 9.28125 49.1287 9.28125H46.6628V8.1875H49.089C49.6358 8.1875 50.075 8.09304 50.4064 7.90412C50.7379 7.7152 50.9782 7.45999 51.1273 7.13849C51.2798 6.81368 51.356 6.44744 51.356 6.03977C51.356 5.6321 51.2798 5.26752 51.1273 4.94602C50.9782 4.62453 50.7362 4.37263 50.4015 4.19034C50.0667 4.00473 49.6226 3.91193 49.0691 3.91193H46.9015V13H45.6685ZM55.5694 2.81818V13H54.3961V2.81818H55.5694ZM59.9656 13.179C59.4817 13.179 59.0425 13.0878 58.6481 12.9055C58.2537 12.7199 57.9405 12.4531 57.7085 12.1051C57.4764 11.7538 57.3604 11.3295 57.3604 10.8324C57.3604 10.3949 57.4466 10.0402 57.619 9.76847C57.7913 9.49337 58.0217 9.27794 58.31 9.12216C58.5984 8.96638 58.9165 8.85038 59.2646 8.77415C59.6159 8.6946 59.9689 8.63163 60.3235 8.58523C60.7875 8.52557 61.1637 8.48082 61.4521 8.45099C61.7437 8.41785 61.9558 8.36316 62.0884 8.28693C62.2243 8.2107 62.2923 8.07812 62.2923 7.8892V7.84943C62.2923 7.3589 62.158 6.97775 61.8896 6.70597C61.6244 6.43419 61.2217 6.2983 60.6815 6.2983C60.1213 6.2983 59.6822 6.42093 59.364 6.66619C59.0458 6.91146 58.8221 7.1733 58.6928 7.4517L57.5792 7.05398C57.7781 6.58996 58.0432 6.22869 58.3746 5.97017C58.7094 5.70833 59.074 5.52604 59.4684 5.4233C59.8661 5.31723 60.2572 5.2642 60.6417 5.2642C60.887 5.2642 61.1687 5.29403 61.4869 5.35369C61.8084 5.41004 62.1183 5.5277 62.4165 5.70668C62.7182 5.88565 62.9684 6.15578 63.1673 6.51705C63.3661 6.87831 63.4656 7.36222 63.4656 7.96875V13H62.2923V11.9659H62.2326C62.1531 12.1316 62.0205 12.3089 61.8349 12.4979C61.6493 12.6868 61.4023 12.8475 61.0941 12.9801C60.7859 13.1127 60.4097 13.179 59.9656 13.179ZM60.1445 12.125C60.6085 12.125 60.9996 12.0339 61.3178 11.8516C61.6393 11.6693 61.8813 11.4339 62.0437 11.1456C62.2094 10.8572 62.2923 10.554 62.2923 10.2358V9.16193C62.2425 9.22159 62.1332 9.27628 61.9641 9.32599C61.7984 9.3724 61.6062 9.41383 61.3874 9.45028C61.172 9.48343 60.9615 9.51326 60.756 9.53977C60.5539 9.56297 60.3898 9.58286 60.2638 9.59943C59.9589 9.6392 59.6739 9.70384 59.4087 9.79332C59.1469 9.8795 58.9348 10.0104 58.7724 10.1861C58.6133 10.3584 58.5337 10.5937 58.5337 10.892C58.5337 11.2997 58.6845 11.608 58.9862 11.8168C59.2911 12.0223 59.6772 12.125 60.1445 12.125ZM66.7804 8.40625V13H65.6071V5.36364H66.7406V6.55682H66.84C67.019 6.16903 67.2908 5.85748 67.6554 5.62216C68.0199 5.38352 68.4906 5.2642 69.0673 5.2642C69.5843 5.2642 70.0368 5.37027 70.4245 5.58239C70.8123 5.79119 71.1139 6.10938 71.3294 6.53693C71.5448 6.96117 71.6525 7.49811 71.6525 8.14773V13H70.4792V8.22727C70.4792 7.62737 70.3234 7.16004 70.0119 6.82528C69.7003 6.48722 69.2728 6.31818 68.7292 6.31818C68.3547 6.31818 68.0199 6.39938 67.725 6.56179C67.4333 6.72419 67.2029 6.96117 67.0339 7.27273C66.8649 7.58428 66.7804 7.96212 66.7804 8.40625Z" fill="#E6EAF2"/>
</svg>
