<svg width="36" height="36" viewBox="0 0 36 36" fill="none" xmlns="http://www.w3.org/2000/svg">
<path d="M12 6H19.5V12C19.5 12.8438 20.1562 13.5 21 13.5H27V27C27 28.6875 25.6406 30 24 30H12C10.3125 30 9 28.6875 9 27V9C9 7.35938 10.3125 6 12 6ZM21 6L27 12H21V6ZM12 9.75C12 10.1719 12.3281 10.5 12.75 10.5H15.75C16.125 10.5 16.5 10.1719 16.5 9.75C16.5 9.375 16.125 9 15.75 9H12.75C12.3281 9 12 9.375 12 9.75ZM12 12.75C12 13.1719 12.3281 13.5 12.75 13.5H15.75C16.125 13.5 16.5 13.1719 16.5 12.75C16.5 12.375 16.125 12 15.75 12H12.75C12.3281 12 12 12.375 12 12.75ZM18 16.125C17.5781 16.125 17.25 16.5 17.25 16.875V17.7188C16.8281 17.7656 16.4531 17.9062 16.0781 18.0938C15.4688 18.4688 15 19.0781 15 20.0156C15 20.8594 15.4688 21.4219 16.0312 21.75C16.5469 22.0781 17.1562 22.2656 17.6719 22.4062H17.7656C18.3281 22.5938 18.7969 22.7344 19.125 22.9688C19.4062 23.1094 19.4531 23.2969 19.4531 23.4844C19.5 23.8125 19.3594 24 19.125 24.1406C18.8438 24.3281 18.4219 24.4219 18 24.375C17.4375 24.375 16.9219 24.1875 16.3125 24C16.1719 23.9531 16.0781 23.9062 15.9844 23.8594C15.5625 23.7656 15.1406 23.9531 15 24.3281C14.9062 24.75 15.0938 25.1719 15.4688 25.3125C15.5625 25.3125 15.7031 25.3594 15.7969 25.4062C16.2188 25.5469 16.6875 25.7344 17.25 25.8281V26.625C17.25 27.0469 17.5781 27.375 18 27.375C18.375 27.375 18.75 27.0469 18.75 26.625V25.8281C19.125 25.7812 19.5469 25.6406 19.9219 25.4062C20.5312 25.0312 21 24.375 21 23.4844C20.9531 22.5938 20.4844 22.0312 19.9219 21.6562C19.4062 21.3281 18.75 21.1406 18.2344 21H18.1875C17.5781 20.8125 17.1562 20.6719 16.8281 20.4844C16.5469 20.2969 16.5 20.1562 16.5 20.0156C16.5 19.7344 16.5938 19.5469 16.875 19.4062C17.1562 19.2188 17.5781 19.125 17.9531 19.125C18.4219 19.1719 18.9375 19.2656 19.4531 19.4062C19.875 19.5 20.2969 19.2656 20.3906 18.8438C20.4844 18.4688 20.25 18.0469 19.875 17.9531C19.5 17.8594 19.125 17.7656 18.75 17.7188V16.875C18.75 16.5 18.375 16.125 18 16.125Z" fill="#A8BAEF"/>
</svg>
