<svg width="17" height="16" viewBox="0 0 17 16" fill="none" xmlns="http://www.w3.org/2000/svg">
<g clip-path="url(#clip0_4680_32512)">
<path d="M8.6665 0C8.7915 0 8.94775 0.03125 9.07275 0.09375L14.9478 2.59375C15.6353 2.90625 16.1665 3.5625 16.1665 4.375C16.1353 7.5 14.854 13.1562 9.479 15.75C8.94775 16 8.354 16 7.82275 15.75C2.44775 13.1562 1.1665 7.5 1.1665 4.375C1.13525 3.5625 1.6665 2.90625 2.354 2.59375L8.229 0.09375C8.354 0.03125 8.51025 0 8.6665 0ZM8.6665 2.09375V13.9062C12.979 11.8125 14.1353 7.21875 14.1665 4.4375L8.6665 2.09375Z" fill="#A8BAEF"/>
</g>
<defs>
<clipPath id="clip0_4680_32512">
<rect width="16" height="16" fill="white" transform="translate(0.666504)"/>
</clipPath>
</defs>
</svg>
