<svg width="16" height="16" viewBox="0 0 16 16" fill="none" xmlns="http://www.w3.org/2000/svg">
<g clip-path="url(#clip0_4680_32494)">
<path d="M8 16C5.125 16 2.5 14.5 1.0625 12C-0.375 9.53125 -0.375 6.5 1.0625 4C2.5 1.53125 5.125 0 8 0C10.8438 0 13.4688 1.53125 14.9062 4C16.3438 6.5 16.3438 9.53125 14.9062 12C13.4688 14.5 10.8438 16 8 16ZM5.28125 5.1875V5.21875C5.15625 5.59375 5.34375 6.03125 5.75 6.1875C6.125 6.3125 6.5625 6.125 6.6875 5.71875L6.71875 5.6875C6.75 5.59375 6.84375 5.53125 6.9375 5.53125H8.75C9.03125 5.53125 9.25 5.71875 9.25 6C9.25 6.15625 9.15625 6.3125 9 6.40625L7.625 7.1875C7.375 7.3125 7.25 7.5625 7.25 7.84375V8.25C7.25 8.6875 7.5625 9 8 9C8.40625 9 8.71875 8.6875 8.75 8.28125L9.75 7.6875C10.3438 7.34375 10.75 6.6875 10.75 6C10.75 4.90625 9.84375 4 8.75 4H6.9375C6.1875 4 5.53125 4.46875 5.28125 5.1875ZM7 11C7 11.5625 7.4375 12 8 12C8.53125 12 9 11.5625 9 11C9 10.4688 8.53125 10 8 10C7.4375 10 7 10.4688 7 11Z" fill="#A8BAEF"/>
</g>
<defs>
<clipPath id="clip0_4680_32494">
<rect width="16" height="16" fill="white"/>
</clipPath>
</defs>
</svg>
