<svg width="18" height="18" viewBox="0 0 18 18" fill="none" xmlns="http://www.w3.org/2000/svg">
<path d="M1 3C1 1.90625 1.875 1 3 1H15C16.0938 1 17 1.90625 17 3V12C17 13.125 16.0938 14 15 14H10.6562L6.78125 16.9062C6.625 17.0312 6.4375 17.0312 6.25 16.9688C6.09375 16.875 6 16.7188 6 16.5V14H3C1.875 14 1 13.125 1 12V3ZM5 8.5C5.53125 8.5 6 8.0625 6 7.5C6 6.96875 5.53125 6.5 5 6.5C4.4375 6.5 4 6.96875 4 7.5C4 8.0625 4.4375 8.5 5 8.5ZM9 8.5C9.53125 8.5 10 8.0625 10 7.5C10 6.96875 9.53125 6.5 9 6.5C8.4375 6.5 8 6.96875 8 7.5C8 8.0625 8.4375 8.5 9 8.5ZM14 7.5C14 6.96875 13.5312 6.5 13 6.5C12.4375 6.5 12 6.96875 12 7.5C12 8.0625 12.4375 8.5 13 8.5C13.5312 8.5 14 8.0625 14 7.5Z" fill="#A8BAEF"/>
</svg>
