<svg width="16" height="16" viewBox="0 0 16 16" fill="none" xmlns="http://www.w3.org/2000/svg">
<path d="M10.3789 1.84375L11.9102 0.96875C12.3203 0.75 12.8672 0.886719 13.0859 1.29688L15.7109 5.83594C15.957 6.27344 15.8203 6.79297 15.4102 7.03906L13.8789 7.91406C13.4688 8.16016 12.9219 8.02344 12.7031 7.58594L10.0781 3.04688C9.83203 2.63672 9.96875 2.08984 10.3789 1.84375ZM0.425781 10.1562L1.65625 9.47266L1.54688 9.28125C1.30078 8.87109 1.4375 8.35156 1.82031 8.10547L9.23047 3.34766C9.25781 3.40234 9.28516 3.42969 9.3125 3.48438L11.9375 8.02344V8.05078L9.58594 9.30859L11.4453 13.8477C11.582 14.2031 11.418 14.5859 11.0898 14.7227C10.7344 14.8594 10.3516 14.6953 10.2148 14.3398L8.4375 9.9375L6.63281 14.3398C6.49609 14.6953 6.11328 14.8594 5.78516 14.7227C5.42969 14.5859 5.26562 14.2031 5.40234 13.8477L6.60547 10.8945L4.19922 12.207C3.78906 12.4258 3.26953 12.2617 3.02344 11.8516L2.99609 11.8242L1.79297 12.5352C1.49219 12.6992 1.08203 12.5898 0.917969 12.2891L0.207031 11.0586C0.015625 10.7305 0.125 10.3477 0.425781 10.1562Z" fill="#A8BAEF"/>
</svg>
