<svg width="24" height="24" viewBox="0 0 24 24" fill="none" xmlns="http://www.w3.org/2000/svg">
<path d="M14.7188 5.25L16.4688 4.25C16.9375 4 17.5625 4.15625 17.8125 4.625L20.8125 9.8125C21.0938 10.3125 20.9375 10.9062 20.4688 11.1875L18.7188 12.1875C18.25 12.4688 17.625 12.3125 17.375 11.8125L14.375 6.625C14.0938 6.15625 14.25 5.53125 14.7188 5.25ZM3.34375 14.75L4.75 13.9688L4.625 13.75C4.34375 13.2812 4.5 12.6875 4.9375 12.4062L13.4062 6.96875C13.4375 7.03125 13.4688 7.0625 13.5 7.125L16.5 12.3125V12.3438L13.8125 13.7812L15.9375 18.9688C16.0938 19.375 15.9062 19.8125 15.5312 19.9688C15.125 20.125 14.6875 19.9375 14.5312 19.5312L12.5 14.5L10.4375 19.5312C10.2812 19.9375 9.84375 20.125 9.46875 19.9688C9.0625 19.8125 8.875 19.375 9.03125 18.9688L10.4062 15.5938L7.65625 17.0938C7.1875 17.3438 6.59375 17.1562 6.3125 16.6875L6.28125 16.6562L4.90625 17.4688C4.5625 17.6562 4.09375 17.5312 3.90625 17.1875L3.09375 15.7812C2.875 15.4062 3 14.9688 3.34375 14.75Z" fill="#A8BAEF"/>
</svg>
