<svg width="66" height="66" viewBox="0 0 66 66" fill="none" xmlns="http://www.w3.org/2000/svg">
<path d="M20.5 49.125L16.625 45.25C15.625 44.25 15.25 42.75 15.75 41.25C16.125 40.125 16.625 38.75 17.125 37H4C2.875 37 1.875 36.5 1.375 35.5C0.75 34.625 0.75 33.5 1.375 32.5L7.875 21.5C9.5 18.75 12.5 17 15.625 17H26C26.25 16.5 26.5 16.125 26.875 15.625C37.125 0.5 52.375 0 61.375 1.75C62.875 2 64 3.125 64.25 4.625C66 13.625 65.5 28.875 50.375 39.125C49.875 39.5 49.5 39.75 49 40V50.375C49 53.5 47.25 56.5 44.5 58.125L33.5 64.625C32.5 65.25 31.375 65.25 30.5 64.625C29.5 64.125 29 63.125 29 62V48.625C27.125 49.25 25.625 49.75 24.5 50.125C23.125 50.625 21.5 50.25 20.5 49.125ZM49 22C50.75 22 52.375 21.125 53.25 19.5C54.125 18 54.125 16.125 53.25 14.5C52.375 13 50.75 12 49 12C47.125 12 45.5 13 44.625 14.5C43.75 16.125 43.75 18 44.625 19.5C45.5 21.125 47.125 22 49 22Z" fill="#A8BAEF"/>
</svg>
