<svg width="24" height="24" viewBox="0 0 24 24" fill="none" xmlns="http://www.w3.org/2000/svg">
<path d="M8.875 16.0312L7.90625 15.0625C7.65625 14.8125 7.5625 14.4375 7.6875 14.0625C7.78125 13.7812 7.90625 13.4375 8.03125 13H4.75C4.46875 13 4.21875 12.875 4.09375 12.625C3.9375 12.4062 3.9375 12.125 4.09375 11.875L5.71875 9.125C6.125 8.4375 6.875 8 7.65625 8H10.25C10.3125 7.875 10.375 7.78125 10.4688 7.65625C13.0312 3.875 16.8438 3.75 19.0938 4.1875C19.4688 4.25 19.75 4.53125 19.8125 4.90625C20.25 7.15625 20.125 10.9688 16.3438 13.5312C16.2188 13.625 16.125 13.6875 16 13.75V16.3438C16 17.125 15.5625 17.875 14.875 18.2812L12.125 19.9062C11.875 20.0625 11.5938 20.0625 11.375 19.9062C11.125 19.7812 11 19.5312 11 19.25V15.9062C10.5312 16.0625 10.1562 16.1875 9.875 16.2812C9.53125 16.4062 9.125 16.3125 8.875 16.0312ZM16 9.25C16.4375 9.25 16.8438 9.03125 17.0625 8.625C17.2812 8.25 17.2812 7.78125 17.0625 7.375C16.8438 7 16.4375 6.75 16 6.75C15.5312 6.75 15.125 7 14.9062 7.375C14.6875 7.78125 14.6875 8.25 14.9062 8.625C15.125 9.03125 15.5312 9.25 16 9.25Z" fill="#A8BAEF"/>
</svg>
