<svg width="36" height="36" viewBox="0 0 36 36" fill="none" xmlns="http://www.w3.org/2000/svg">
<path d="M23.25 6H28.5C29.2969 6 30 6.70312 30 7.5V12.75C30 13.5938 29.2969 14.25 28.5 14.25C27.6562 14.25 27 13.5938 27 12.75V10.9219L20.4375 16.1719C19.875 16.6406 19.125 16.6406 18.5625 16.2188L13.5 12.4219L6.9375 17.6719C6.28125 18.1875 5.34375 18.0938 4.82812 17.4375C4.3125 16.8281 4.40625 15.8438 5.0625 15.3281L12.5625 9.32812C13.0781 8.90625 13.8281 8.90625 14.3906 9.32812L19.4531 13.125L24.5625 9H23.25C22.4062 9 21.75 8.34375 21.75 7.5C21.75 6.70312 22.4062 6 23.25 6ZM13.5 16.5C14.2969 16.5 15 17.2031 15 18V27C15 27.8438 14.2969 28.5 13.5 28.5C12.6562 28.5 12 27.8438 12 27V18C12 17.2031 12.6562 16.5 13.5 16.5ZM7.5 21C8.29688 21 9 21.7031 9 22.5V27C9 27.8438 8.29688 28.5 7.5 28.5C6.65625 28.5 6 27.8438 6 27V22.5C6 21.7031 6.65625 21 7.5 21ZM24.75 30C22.3125 30 20.1094 28.7344 18.8906 26.625C17.6719 24.5625 17.6719 21.9844 18.8906 19.875C20.1094 17.8125 22.3125 16.5 24.75 16.5C27.1406 16.5 29.3438 17.8125 30.5625 19.875C31.7812 21.9844 31.7812 24.5625 30.5625 26.625C29.3438 28.7344 27.1406 30 24.75 30ZM23.625 21.8906V21.9375C23.5781 21.8438 23.625 21.7969 23.625 21.75C23.6719 21.7031 23.7188 21.6562 23.8594 21.6094C24.0938 21.4688 24.4219 21.375 24.7031 21.4219C25.0781 21.4219 25.5 21.4688 25.9688 21.6094C26.3438 21.7031 26.7656 21.4688 26.8594 21.0469C26.9531 20.625 26.7188 20.25 26.2969 20.1562C26.0625 20.0625 25.7812 20.0156 25.4531 19.9688V19.5C25.4531 19.125 25.125 18.75 24.7031 18.75C24.3281 18.75 23.9531 19.125 23.9531 19.5V19.9688C23.6719 20.0156 23.3906 20.1094 23.1094 20.25C22.5938 20.5781 22.0312 21.1406 22.125 22.0312C22.1719 22.7812 22.6406 23.2031 23.1094 23.4375C23.5312 23.6719 24.0469 23.8125 24.4688 23.9531H24.5625C25.0312 24.0938 25.4062 24.1875 25.6406 24.3281C25.8281 24.4688 25.875 24.5625 25.875 24.6094C25.875 24.7031 25.8281 24.7969 25.8281 24.8438C25.7812 24.8438 25.7344 24.9375 25.6406 24.9844C25.4062 25.0781 25.0781 25.1719 24.75 25.125C24.3281 25.125 23.9062 24.9844 23.3438 24.8438C23.25 24.7969 23.1562 24.75 23.0625 24.75C22.6875 24.6094 22.2656 24.8438 22.125 25.2188C22.0312 25.6406 22.2188 26.0625 22.6406 26.1562C22.6875 26.2031 22.7812 26.2031 22.875 26.25C23.2031 26.3438 23.5781 26.4844 24 26.5781V27.0938C24 27.5156 24.3281 27.8438 24.75 27.8438C25.125 27.8438 25.5 27.5156 25.5 27.0938V26.5781C25.7812 26.5312 26.0625 26.4375 26.3438 26.2969C26.9062 25.9688 27.375 25.4062 27.375 24.5625C27.3281 23.8125 26.8594 23.3438 26.3906 23.0625C25.9688 22.7812 25.4062 22.6406 24.9844 22.5H24.9375C24.4688 22.3594 24.0938 22.2656 23.8125 22.125C23.625 21.9844 23.625 21.9375 23.625 21.9375V21.8906Z" fill="#A8BAEF"/>
</svg>
