<svg width="24" height="24" viewBox="0 0 24 24" fill="none" xmlns="http://www.w3.org/2000/svg">
<path d="M17 10.5C17 11.9375 16.5312 13.2812 15.75 14.3438L19.6875 18.3125C20.0938 18.6875 20.0938 19.3438 19.6875 19.7188C19.3125 20.125 18.6562 20.125 18.2812 19.7188L14.3125 15.75C13.25 16.5625 11.9062 17 10.5 17C6.90625 17 4 14.0938 4 10.5C4 6.9375 6.90625 4 10.5 4C14.0625 4 17 6.9375 17 10.5ZM10.5 15C12.0938 15 13.5625 14.1562 14.375 12.75C15.1875 11.375 15.1875 9.65625 14.375 8.25C13.5625 6.875 12.0938 6 10.5 6C8.875 6 7.40625 6.875 6.59375 8.25C5.78125 9.65625 5.78125 11.375 6.59375 12.75C7.40625 14.1562 8.875 15 10.5 15Z" fill="#E6EAF2"/>
</svg>
