<svg width="17" height="16" viewBox="0 0 17 16" fill="none" xmlns="http://www.w3.org/2000/svg">
<path d="M15.2686 5.31641C15.3779 5.5625 15.2959 5.80859 15.1045 6L13.9287 7.06641C13.9561 7.28516 13.9561 7.53125 13.9561 7.75C13.9561 7.99609 13.9561 8.24219 13.9287 8.46094L15.1045 9.52734C15.2959 9.69141 15.3779 9.96484 15.2686 10.2109C15.1592 10.5391 15.0225 10.8398 14.8584 11.1406L14.7217 11.3594C14.5303 11.6602 14.3389 11.9609 14.1201 12.207C13.9561 12.4258 13.6826 12.4805 13.4365 12.3984L11.9326 11.9336C11.5498 12.207 11.1396 12.4258 10.7295 12.6172L10.374 14.1758C10.3193 14.4219 10.1279 14.6133 9.88184 14.668C9.49902 14.7227 9.11621 14.75 8.70605 14.75C8.32324 14.75 7.94043 14.7227 7.55762 14.668C7.31152 14.6133 7.12012 14.4219 7.06543 14.1758L6.70996 12.6172C6.27246 12.4258 5.88965 12.207 5.50684 11.9336L4.00293 12.3984C3.75684 12.4805 3.4834 12.4258 3.31934 12.2344C3.10059 11.9609 2.90918 11.6602 2.71777 11.3594L2.58105 11.1406C2.41699 10.8398 2.28027 10.5391 2.1709 10.2109C2.06152 9.96484 2.14355 9.71875 2.33496 9.52734L3.51074 8.46094C3.4834 8.24219 3.4834 7.99609 3.4834 7.75C3.4834 7.53125 3.4834 7.28516 3.51074 7.06641L2.33496 6C2.14355 5.80859 2.06152 5.5625 2.1709 5.31641C2.28027 4.98828 2.41699 4.6875 2.58105 4.38672L2.71777 4.16797C2.90918 3.86719 3.10059 3.56641 3.31934 3.29297C3.4834 3.10156 3.75684 3.04688 4.00293 3.12891L5.50684 3.59375C5.88965 3.32031 6.2998 3.07422 6.70996 2.91016L7.06543 1.35156C7.12012 1.10547 7.31152 0.914062 7.55762 0.859375C7.94043 0.804688 8.32324 0.75 8.7334 0.75C9.11621 0.75 9.49902 0.804688 9.88184 0.859375C10.1279 0.886719 10.3193 1.10547 10.374 1.35156L10.7295 2.91016C11.167 3.07422 11.5498 3.32031 11.9326 3.59375L13.4365 3.12891C13.6826 3.04688 13.9561 3.10156 14.1201 3.29297C14.3389 3.56641 14.5303 3.86719 14.7217 4.16797L14.8584 4.38672C15.0225 4.6875 15.1592 4.98828 15.2959 5.31641H15.2686ZM8.7334 9.9375C9.49902 9.9375 10.21 9.52734 10.6201 8.84375C11.0029 8.1875 11.0029 7.33984 10.6201 6.65625C10.21 6 9.49902 5.5625 8.7334 5.5625C7.94043 5.5625 7.22949 6 6.81934 6.65625C6.43652 7.33984 6.43652 8.1875 6.81934 8.84375C7.22949 9.52734 7.94043 9.9375 8.7334 9.9375Z" fill="#A8BAEF"/>
</svg>
