<svg width="36" height="36" viewBox="0 0 36 36" fill="none" xmlns="http://www.w3.org/2000/svg">
<path d="M3 7.125C3 6.51562 3.46875 6 4.125 6H31.875C32.4844 6 33 6.51562 33 7.125C33 7.78125 32.4844 8.25 31.875 8.25H4.125C3.46875 8.25 3 7.78125 3 7.125ZM3 28.875C3 28.2656 3.46875 27.75 4.125 27.75H31.875C32.4844 27.75 33 28.2656 33 28.875C33 29.5312 32.4844 30 31.875 30H4.125C3.46875 30 3 29.5312 3 28.875ZM6.89062 13.5C6.89062 12.4688 7.45312 11.4844 8.39062 10.9219C9.32812 10.4062 10.4531 10.4062 11.3906 10.9219C12.3281 11.4844 12.8906 12.4688 12.8906 13.5C12.8906 14.5781 12.3281 15.5625 11.3906 16.125C10.4531 16.6406 9.32812 16.6406 8.39062 16.125C7.45312 15.5625 6.89062 14.5781 6.89062 13.5ZM4.5 21C4.5 19.3594 5.8125 18 7.5 18H12C12.5625 18 13.0781 18.1875 13.5469 18.4688C11.8125 19.1719 10.4531 20.6719 9.98438 22.5H6C5.15625 22.5 4.5 21.8438 4.5 21ZM26.1094 22.5C25.6406 20.625 24.2812 19.125 22.4531 18.4219C22.9219 18.1875 23.4375 18 24 18H28.5C30.1406 18 31.5 19.3594 31.5 21C31.5 21.8438 30.7969 22.5 30 22.5H26.1094ZM21.3281 19.6406C22.8281 19.9688 24.0469 21.0938 24.5625 22.5C24.7031 22.9688 24.7969 23.4844 24.7969 24C24.7969 24.8438 24.1406 25.5 23.2969 25.5H12.7969C11.9531 25.5 11.2969 24.8438 11.2969 24C11.2969 23.4844 11.3906 22.9688 11.5781 22.5C12.0469 21.1406 13.2188 20.0625 14.6719 19.6875C15.0469 19.5469 15.4219 19.5 15.7969 19.5H20.2969C20.6719 19.5 21 19.5469 21.3281 19.6406ZM23.3906 13.5C23.3906 12.4688 23.9531 11.4844 24.8906 10.9219C25.8281 10.4062 26.9531 10.4062 27.8906 10.9219C28.8281 11.4844 29.3906 12.4688 29.3906 13.5C29.3906 14.5781 28.8281 15.5625 27.8906 16.125C26.9531 16.6406 25.8281 16.6406 24.8906 16.125C23.9531 15.5625 23.3906 14.5781 23.3906 13.5ZM18.0469 10.5C19.4062 10.5 20.625 11.25 21.2812 12.375C21.9844 13.5469 21.9844 15 21.2812 16.125C20.625 17.2969 19.4062 18 18.0469 18C16.7344 18 15.4688 17.2969 14.8125 16.125C14.1562 15 14.1562 13.5469 14.8125 12.375C15.4688 11.25 16.7344 10.5 18.0469 10.5Z" fill="#A8BAEF"/>
</svg>
