<svg width="12" height="12" viewBox="0 0 12 12" fill="none" xmlns="http://www.w3.org/2000/svg">
<g clip-path="url(#clip0_4845_3695)">
<path d="M6.49219 1.57812L7.89844 4.60156L10.9219 6.00781C11.1094 6.10156 11.25 6.28906 11.25 6.5C11.25 6.73438 11.1094 6.92188 10.9219 7.01562L7.89844 8.42188L6.49219 11.4453C6.39844 11.6328 6.21094 11.75 6 11.75C5.76562 11.75 5.57812 11.6328 5.48438 11.4453L4.07812 8.42188L1.05469 7.01562C0.867188 6.92188 0.75 6.73438 0.75 6.5C0.75 6.28906 0.867188 6.10156 1.05469 6.00781L4.07812 4.60156L5.48438 1.57812C5.57812 1.39062 5.76562 1.25 6 1.25C6.21094 1.25 6.39844 1.39062 6.49219 1.57812Z" fill="#A8BAEF"/>
</g>
<defs>
<clipPath id="clip0_4845_3695">
<rect width="12" height="12" fill="white"/>
</clipPath>
</defs>
</svg>
