<svg width="16" height="15" viewBox="0 0 16 15" fill="none" xmlns="http://www.w3.org/2000/svg">
<path d="M7.7334 14.75C5.21777 14.75 2.9209 13.4375 1.66309 11.25C0.405273 9.08984 0.405273 6.4375 1.66309 4.25C2.9209 2.08984 5.21777 0.75 7.7334 0.75C10.2217 0.75 12.5186 2.08984 13.7764 4.25C15.0342 6.4375 15.0342 9.08984 13.7764 11.25C12.5186 13.4375 10.2217 14.75 7.7334 14.75ZM5.81934 4.49609C5.57324 4.22266 5.16309 4.19531 4.88965 4.41406C4.61621 4.66016 4.58887 5.07031 4.80762 5.34375L6.8584 7.75L4.80762 10.1836C4.58887 10.457 4.61621 10.8672 4.88965 11.1133C5.16309 11.332 5.57324 11.3047 5.81934 11.0312L7.7334 8.78906L9.62012 11.0312C9.86621 11.3047 10.2764 11.332 10.5498 11.1133C10.8232 10.8672 10.8506 10.457 10.6318 10.1836L8.58105 7.75L10.6318 5.34375C10.8506 5.07031 10.8232 4.66016 10.5498 4.41406C10.2764 4.19531 9.86621 4.22266 9.62012 4.49609L7.7334 6.73828L5.81934 4.49609Z" fill="#A8BAEF"/>
</svg>
