<svg width="20" height="20" viewBox="0 0 20 20" fill="none" xmlns="http://www.w3.org/2000/svg">
<path d="M2.5 7.5C2.5 6.67969 3.15625 6 4 6H8.5H9.625H10H16C16.8203 6 17.5 6.67969 17.5 7.5V13.5C17.5 14.3438 16.8203 15 16 15H10H9.625H8.5H4C3.15625 15 2.5 14.3438 2.5 13.5V7.5ZM10 7.5V13.5H16V7.5H10ZM6.67188 8.625C6.60156 8.46094 6.41406 8.34375 6.25 8.34375C6.0625 8.34375 5.875 8.46094 5.80469 8.625L4.30469 12C4.21094 12.2344 4.30469 12.5156 4.53906 12.6328C4.79688 12.7266 5.05469 12.6328 5.17188 12.3984L5.38281 11.9062H7.09375L7.30469 12.3984C7.42188 12.6328 7.70312 12.7266 7.9375 12.6328C8.17188 12.5156 8.26562 12.2344 8.17188 12L6.67188 8.625ZM6.25 9.98438L6.69531 10.9688H5.80469L6.25 9.98438ZM13 8.34375C13.2578 8.34375 13.4688 8.55469 13.4688 8.8125V8.90625H14.5H14.875C15.1328 8.90625 15.3438 9.11719 15.3438 9.375C15.3438 9.63281 15.1328 9.84375 14.875 9.84375H14.8281L14.7812 9.96094C14.5703 10.5234 14.2656 11.0625 13.8438 11.4844C13.8672 11.5078 13.8906 11.5078 13.9141 11.5312L14.3594 11.7891C14.5703 11.9297 14.6406 12.2109 14.5234 12.4453C14.3828 12.6562 14.1016 12.7266 13.8672 12.6094L13.4453 12.3281C13.3281 12.2812 13.2344 12.2109 13.1172 12.1406C12.8828 12.3047 12.625 12.4688 12.3203 12.5859L12.25 12.6328C12.0156 12.7266 11.7344 12.6328 11.6172 12.3984C11.5234 12.1406 11.6406 11.8828 11.875 11.7656L11.9453 11.7422C12.1094 11.6719 12.25 11.5781 12.3906 11.5078L12.1094 11.2266C11.9219 11.0391 11.9219 10.7344 12.1094 10.5469C12.2734 10.3594 12.5781 10.3594 12.7656 10.5469L13.0938 10.8984H13.1172C13.3984 10.5938 13.6328 10.2422 13.8203 9.84375H13H11.3125C11.0547 9.84375 10.8438 9.63281 10.8438 9.375C10.8438 9.11719 11.0547 8.90625 11.3125 8.90625H12.5312V8.8125C12.5312 8.55469 12.7422 8.34375 13 8.34375Z" fill="#A8BAEF"/>
</svg>
