<svg width="19" height="11" viewBox="0 0 19 11" fill="none" xmlns="http://www.w3.org/2000/svg">
<path d="M0.983398 2.25C0.983398 1.29297 1.74902 0.5 2.7334 0.5H7.9834H9.2959H9.7334H16.7334C17.6904 0.5 18.4834 1.29297 18.4834 2.25V9.25C18.4834 10.2344 17.6904 11 16.7334 11H9.7334H9.2959H7.9834H2.7334C1.74902 11 0.983398 10.2344 0.983398 9.25V2.25ZM9.7334 2.25V9.25H16.7334V2.25H9.7334ZM5.85059 3.5625C5.76855 3.37109 5.5498 3.23438 5.3584 3.23438C5.13965 3.23438 4.9209 3.37109 4.83887 3.5625L3.08887 7.5C2.97949 7.77344 3.08887 8.10156 3.3623 8.23828C3.66309 8.34766 3.96387 8.23828 4.10059 7.96484L4.34668 7.39062H6.34277L6.58887 7.96484C6.72559 8.23828 7.05371 8.34766 7.32715 8.23828C7.60059 8.10156 7.70996 7.77344 7.60059 7.5L5.85059 3.5625ZM5.3584 5.14844L5.87793 6.29688H4.83887L5.3584 5.14844ZM13.2334 3.23438C13.5342 3.23438 13.7803 3.48047 13.7803 3.78125V3.89062H14.9834H15.4209C15.7217 3.89062 15.9678 4.13672 15.9678 4.4375C15.9678 4.73828 15.7217 4.98438 15.4209 4.98438H15.3662L15.3115 5.12109C15.0654 5.77734 14.71 6.40625 14.2178 6.89844C14.2451 6.92578 14.2725 6.92578 14.2998 6.95312L14.8193 7.25391C15.0654 7.41797 15.1475 7.74609 15.0107 8.01953C14.8467 8.26562 14.5186 8.34766 14.2451 8.21094L13.7529 7.88281C13.6162 7.82812 13.5068 7.74609 13.3701 7.66406C13.0967 7.85547 12.7959 8.04688 12.4404 8.18359L12.3584 8.23828C12.085 8.34766 11.7568 8.23828 11.6201 7.96484C11.5107 7.66406 11.6475 7.36328 11.9209 7.22656L12.0029 7.19922C12.1943 7.11719 12.3584 7.00781 12.5225 6.92578L12.1943 6.59766C11.9756 6.37891 11.9756 6.02344 12.1943 5.80469C12.3857 5.58594 12.7412 5.58594 12.96 5.80469L13.3428 6.21484H13.3701C13.6982 5.85938 13.9717 5.44922 14.1904 4.98438H13.2334H11.2646C10.9639 4.98438 10.7178 4.73828 10.7178 4.4375C10.7178 4.13672 10.9639 3.89062 11.2646 3.89062H12.6865V3.78125C12.6865 3.48047 12.9326 3.23438 13.2334 3.23438Z" fill="#A8BAEF"/>
</svg>
