<svg width="20" height="20" viewBox="0 0 20 20" fill="none" xmlns="http://www.w3.org/2000/svg">
<path d="M7.91406 4.92188C8.03125 4.66406 8.28906 4.5 8.57031 4.5H11.4062C11.6875 4.5 11.9453 4.66406 12.0625 4.92188L12.25 5.25H14.5C14.8984 5.25 15.25 5.60156 15.25 6C15.25 6.42188 14.8984 6.75 14.5 6.75H5.5C5.07812 6.75 4.75 6.42188 4.75 6C4.75 5.60156 5.07812 5.25 5.5 5.25H7.75L7.91406 4.92188ZM14.5 7.5L13.9844 15.4453C13.9609 16.0547 13.4688 16.5 12.8594 16.5H7.11719C6.50781 16.5 6.01562 16.0547 5.99219 15.4453L5.5 7.5H14.5Z" fill="#A8BAEF"/>
</svg>
