<svg width="54" height="54" viewBox="0 0 54 54" fill="none" xmlns="http://www.w3.org/2000/svg">
<path d="M17.5 5C13.9844 5 11.25 7.8125 11.25 11.25V15H30C32.7344 15 35 17.2656 35 20V35C35 37.8125 32.7344 40 30 40H5C2.1875 40 0 37.8125 0 35V20C0 17.2656 2.1875 15 5 15H6.25V11.25C6.25 5.07812 11.25 0 17.5 0C21.9531 0 25.8594 2.65625 27.6562 6.48438C28.2031 7.73438 27.6562 9.21875 26.4062 9.76562C25.1562 10.3906 23.6719 9.84375 23.125 8.59375C22.1094 6.48438 19.9219 5 17.5 5ZM20 30C21.3281 30 22.5 28.9062 22.5 27.5C22.5 26.1719 21.3281 25 20 25H15C13.5938 25 12.5 26.1719 12.5 27.5C12.5 28.9062 13.5938 30 15 30H20Z" fill="#A8BAEF"/>
<mask id="path-2-outside-1_4695_29373" maskUnits="userSpaceOnUse" x="25" y="26" width="29" height="28" fill="black">
<rect fill="white" x="25" y="26" width="29" height="28"/>
<path d="M40 52C35.6875 52 31.75 49.75 29.5938 46C27.4375 42.2969 27.4375 37.75 29.5938 34C31.75 30.2969 35.6875 28 40 28C44.2656 28 48.2031 30.2969 50.3594 34C52.5156 37.75 52.5156 42.2969 50.3594 46C48.2031 49.75 44.2656 52 40 52ZM43.4688 33.4375C43.1875 33.2031 42.7656 33.2031 42.5312 33.4375L35.0312 39.4375C34.75 39.625 34.6562 39.9531 34.75 40.2812C34.8906 40.5625 35.1719 40.75 35.5 40.75H38.7812L36.2969 45.6719C36.1562 46 36.25 46.375 36.4844 46.6094C36.7656 46.8438 37.1875 46.8438 37.4688 46.6094L44.9688 40.6094C45.2031 40.4219 45.2969 40.0938 45.2031 39.7656C45.0625 39.4844 44.7812 39.25 44.5 39.25H41.1719L43.6562 34.375C43.7969 34.0469 43.7031 33.6719 43.4688 33.4375Z"/>
</mask>
<path d="M40 52C35.6875 52 31.75 49.75 29.5938 46C27.4375 42.2969 27.4375 37.75 29.5938 34C31.75 30.2969 35.6875 28 40 28C44.2656 28 48.2031 30.2969 50.3594 34C52.5156 37.75 52.5156 42.2969 50.3594 46C48.2031 49.75 44.2656 52 40 52ZM43.4688 33.4375C43.1875 33.2031 42.7656 33.2031 42.5312 33.4375L35.0312 39.4375C34.75 39.625 34.6562 39.9531 34.75 40.2812C34.8906 40.5625 35.1719 40.75 35.5 40.75H38.7812L36.2969 45.6719C36.1562 46 36.25 46.375 36.4844 46.6094C36.7656 46.8438 37.1875 46.8438 37.4688 46.6094L44.9688 40.6094C45.2031 40.4219 45.2969 40.0938 45.2031 39.7656C45.0625 39.4844 44.7812 39.25 44.5 39.25H41.1719L43.6562 34.375C43.7969 34.0469 43.7031 33.6719 43.4688 33.4375Z" fill="#1C2024"/>
<path d="M29.5938 46L31.3276 45.003L31.3221 44.9936L29.5938 46ZM29.5938 34L27.8654 32.9936L27.8599 33.0031L29.5938 34ZM50.3594 34L52.0932 33.003L52.0877 32.9936L50.3594 34ZM50.3594 46L48.631 44.9936L48.6256 45.0031L50.3594 46ZM43.4688 33.4375L44.883 32.0233L44.8188 31.9591L44.7491 31.9011L43.4688 33.4375ZM42.5312 33.4375L43.7806 34.9992L43.8671 34.93L43.9455 34.8517L42.5312 33.4375ZM35.0312 39.4375L36.1407 41.1016L36.2129 41.0535L36.2806 40.9992L35.0312 39.4375ZM34.75 40.2812L32.827 40.8307L32.878 41.0094L32.9611 41.1757L34.75 40.2812ZM38.7812 40.75L40.5667 41.6512L42.0311 38.75H38.7812V40.75ZM36.2969 45.6719L34.5114 44.7707L34.4832 44.8265L34.4586 44.884L36.2969 45.6719ZM36.4844 46.6094L35.0702 48.0236L35.1343 48.0877L35.204 48.1458L36.4844 46.6094ZM37.4688 46.6094L36.2194 45.0476L36.2037 45.0601L36.1884 45.0729L37.4688 46.6094ZM45.2031 39.7656L47.1262 39.2162L47.0751 39.0375L46.992 38.8712L45.2031 39.7656ZM41.1719 39.25L39.3899 38.3419L37.9079 41.25H41.1719V39.25ZM43.6562 34.375L45.4382 35.2831L45.4684 35.2239L45.4945 35.1628L43.6562 34.375ZM40 50C36.3955 50 33.1231 48.1258 31.3276 45.0031L27.8599 46.9969C30.3769 51.3742 34.9795 54 40 54V50ZM31.3221 44.9936C29.5303 41.9164 29.524 38.1336 31.3276 34.9969L27.8599 33.0031C25.351 37.3664 25.3447 42.6773 27.8654 47.0064L31.3221 44.9936ZM31.3221 35.0064C33.1242 31.9114 36.4075 30 40 30V26C34.9675 26 30.3758 28.6824 27.8654 32.9936L31.3221 35.0064ZM40 30C43.5412 30 46.8267 31.9076 48.631 35.0064L52.0877 32.9936C49.5796 28.6862 44.99 26 40 26V30ZM48.6256 34.9969C50.4292 38.1336 50.4228 41.9164 48.631 44.9936L52.0877 47.0064C54.6084 42.6773 54.6021 37.3664 52.0932 33.0031L48.6256 34.9969ZM48.6256 45.0031C46.8278 48.1296 43.5532 50 40 50V54C44.978 54 49.5784 51.3704 52.0932 46.9969L48.6256 45.0031ZM44.7491 31.9011C43.8021 31.1118 42.1957 30.9446 41.117 32.0233L43.9455 34.8517C43.631 35.1662 43.2572 35.2617 42.9824 35.2617C42.705 35.2617 42.4226 35.1691 42.1884 34.9739L44.7491 31.9011ZM41.2819 31.8758L33.7819 37.8758L36.2806 40.9992L43.7806 34.9992L41.2819 31.8758ZM33.9218 37.7734C32.8035 38.519 32.534 39.8052 32.827 40.8307L36.673 39.7318C36.7223 39.9042 36.7413 40.146 36.6548 40.4162C36.5644 40.6988 36.379 40.9427 36.1407 41.1016L33.9218 37.7734ZM32.9611 41.1757C33.4219 42.0972 34.3735 42.75 35.5 42.75V38.75C35.9702 38.75 36.3593 39.0278 36.5389 39.3868L32.9611 41.1757ZM35.5 42.75H38.7812V38.75H35.5V42.75ZM36.9958 39.8488L34.5114 44.7707L38.0823 46.5731L40.5667 41.6512L36.9958 39.8488ZM34.4586 44.884C33.9698 46.0246 34.3057 47.2591 35.0702 48.0236L37.8986 45.1952C38.1943 45.4909 38.3427 45.9754 38.1352 46.4597L34.4586 44.884ZM35.204 48.1458C36.2269 48.9983 37.7262 48.9983 38.7491 48.1458L36.1884 45.0729C36.6488 44.6892 37.3043 44.6892 37.7647 45.0729L35.204 48.1458ZM38.7181 48.1711L46.2181 42.1711L43.7194 39.0476L36.2194 45.0476L38.7181 48.1711ZM46.2181 42.1711C47.1693 41.4102 47.409 40.2061 47.1262 39.2162L43.2801 40.3151C43.1848 39.9814 43.2369 39.4336 43.7194 39.0476L46.2181 42.1711ZM46.992 38.8712C46.6598 38.2069 45.8199 37.25 44.5 37.25V41.25C44.0875 41.25 43.8131 41.0853 43.6922 40.9932C43.5637 40.8953 43.4756 40.7827 43.4143 40.6601L46.992 38.8712ZM44.5 37.25H41.1719V41.25H44.5V37.25ZM42.9538 40.1581L45.4382 35.2831L41.8743 33.4669L39.3899 38.3419L42.9538 40.1581ZM45.4945 35.1628C45.9833 34.0223 45.6474 32.7878 44.883 32.0233L42.0545 34.8517C41.7588 34.556 41.6104 34.0715 41.818 33.5872L45.4945 35.1628Z" fill="#E6EAF2" mask="url(#path-2-outside-1_4695_29373)"/>
</svg>
