<svg width="74" height="16" viewBox="0 0 74 16" fill="none" xmlns="http://www.w3.org/2000/svg">
<path d="M10.9102 11.2773C10.2812 10.2109 9.16016 9.5 7.875 9.5H6.125C4.8125 9.5 3.69141 10.2109 3.08984 11.2773C4.04688 12.3438 5.44141 13 7 13C8.53125 13 9.92578 12.3438 10.9102 11.2773ZM0 7.75C0 5.26172 1.3125 2.96484 3.5 1.70703C5.66016 0.449219 8.3125 0.449219 10.5 1.70703C12.6602 2.96484 14 5.26172 14 7.75C14 10.2656 12.6602 12.5625 10.5 13.8203C8.3125 15.0781 5.66016 15.0781 3.5 13.8203C1.3125 12.5625 0 10.2656 0 7.75ZM7 8.1875C7.68359 8.1875 8.33984 7.83203 8.69531 7.20312C9.05078 6.60156 9.05078 5.86328 8.69531 5.23438C8.33984 4.63281 7.68359 4.25 7 4.25C6.28906 4.25 5.63281 4.63281 5.27734 5.23438C4.92188 5.86328 4.92188 6.60156 5.27734 7.20312C5.63281 7.83203 6.28906 8.1875 7 8.1875ZM20.9006 13H19.608L23.3466 2.81818H24.6193L28.358 13H27.0653L24.0227 4.42898H23.9432L20.9006 13ZM21.3778 9.02273H26.5881V10.1165H21.3778V9.02273ZM32.8871 13.1591C32.1712 13.1591 31.5547 12.9901 31.0376 12.652C30.5206 12.3139 30.1229 11.8482 29.8445 11.255C29.5661 10.6617 29.4268 9.9839 29.4268 9.22159C29.4268 8.44602 29.5694 7.7616 29.8544 7.16832C30.1428 6.57173 30.5438 6.10606 31.0575 5.77131C31.5746 5.43324 32.1778 5.2642 32.8672 5.2642C33.4041 5.2642 33.888 5.36364 34.3189 5.5625C34.7498 5.76136 35.1027 6.03977 35.3778 6.39773C35.6529 6.75568 35.8236 7.1733 35.8899 7.65057H34.7166C34.6271 7.30256 34.4283 6.99432 34.12 6.72585C33.8151 6.45407 33.4041 6.31818 32.8871 6.31818C32.4297 6.31818 32.0286 6.4375 31.6839 6.67614C31.3426 6.91146 31.0758 7.24455 30.8835 7.67543C30.6946 8.10298 30.6001 8.60511 30.6001 9.18182C30.6001 9.77178 30.6929 10.2855 30.8786 10.723C31.0675 11.1605 31.3326 11.5002 31.674 11.7422C32.0187 11.9841 32.4231 12.1051 32.8871 12.1051C33.192 12.1051 33.4688 12.0521 33.7173 11.946C33.9659 11.84 34.1764 11.6875 34.3487 11.4886C34.5211 11.2898 34.6437 11.0511 34.7166 10.7727H35.8899C35.8236 11.2235 35.6596 11.6295 35.3977 11.9908C35.1392 12.3487 34.7962 12.6338 34.3686 12.8459C33.9444 13.0547 33.4505 13.1591 32.8871 13.1591ZM40.7074 13.1591C39.9915 13.1591 39.375 12.9901 38.858 12.652C38.3409 12.3139 37.9432 11.8482 37.6648 11.255C37.3864 10.6617 37.2472 9.9839 37.2472 9.22159C37.2472 8.44602 37.3897 7.7616 37.6747 7.16832C37.9631 6.57173 38.3641 6.10606 38.8778 5.77131C39.3949 5.43324 39.9981 5.2642 40.6875 5.2642C41.2244 5.2642 41.7083 5.36364 42.1392 5.5625C42.5701 5.76136 42.9231 6.03977 43.1982 6.39773C43.4732 6.75568 43.6439 7.1733 43.7102 7.65057H42.5369C42.4474 7.30256 42.2486 6.99432 41.9403 6.72585C41.6354 6.45407 41.2244 6.31818 40.7074 6.31818C40.25 6.31818 39.849 6.4375 39.5043 6.67614C39.1629 6.91146 38.8961 7.24455 38.7038 7.67543C38.5149 8.10298 38.4205 8.60511 38.4205 9.18182C38.4205 9.77178 38.5133 10.2855 38.6989 10.723C38.8878 11.1605 39.1529 11.5002 39.4943 11.7422C39.839 11.9841 40.2434 12.1051 40.7074 12.1051C41.0123 12.1051 41.2891 12.0521 41.5376 11.946C41.7862 11.84 41.9967 11.6875 42.169 11.4886C42.3414 11.2898 42.464 11.0511 42.5369 10.7727H43.7102C43.6439 11.2235 43.4799 11.6295 43.218 11.9908C42.9595 12.3487 42.6165 12.6338 42.1889 12.8459C41.7647 13.0547 41.2708 13.1591 40.7074 13.1591ZM48.5277 13.1591C47.8383 13.1591 47.2334 12.995 46.7131 12.6669C46.196 12.3388 45.7917 11.8797 45.5 11.2898C45.2116 10.6998 45.0675 10.0104 45.0675 9.22159C45.0675 8.42614 45.2116 7.73177 45.5 7.13849C45.7917 6.54522 46.196 6.08452 46.7131 5.75639C47.2334 5.42827 47.8383 5.2642 48.5277 5.2642C49.2171 5.2642 49.8203 5.42827 50.3374 5.75639C50.8577 6.08452 51.2621 6.54522 51.5504 7.13849C51.8421 7.73177 51.9879 8.42614 51.9879 9.22159C51.9879 10.0104 51.8421 10.6998 51.5504 11.2898C51.2621 11.8797 50.8577 12.3388 50.3374 12.6669C49.8203 12.995 49.2171 13.1591 48.5277 13.1591ZM48.5277 12.1051C49.0514 12.1051 49.4822 11.9709 49.8203 11.7024C50.1584 11.4339 50.4086 11.081 50.571 10.6435C50.7334 10.206 50.8146 9.73201 50.8146 9.22159C50.8146 8.71117 50.7334 8.23556 50.571 7.79474C50.4086 7.35393 50.1584 6.99763 49.8203 6.72585C49.4822 6.45407 49.0514 6.31818 48.5277 6.31818C48.004 6.31818 47.5732 6.45407 47.2351 6.72585C46.897 6.99763 46.6468 7.35393 46.4844 7.79474C46.322 8.23556 46.2408 8.71117 46.2408 9.22159C46.2408 9.73201 46.322 10.206 46.4844 10.6435C46.6468 11.081 46.897 11.4339 47.2351 11.7024C47.5732 11.9709 48.004 12.1051 48.5277 12.1051ZM58.5914 9.87784V5.36364H59.7647V13H58.5914V11.7074H58.5119C58.3329 12.0952 58.0545 12.425 57.6767 12.6967C57.2988 12.9652 56.8216 13.0994 56.2449 13.0994C55.7676 13.0994 55.3433 12.995 54.9721 12.7862C54.6009 12.5741 54.3092 12.2559 54.0971 11.8317C53.885 11.4041 53.7789 10.8655 53.7789 10.2159V5.36364H54.9522V10.1364C54.9522 10.6932 55.108 11.1373 55.4196 11.4688C55.7344 11.8002 56.1355 11.9659 56.6227 11.9659C56.9144 11.9659 57.211 11.8913 57.5126 11.7422C57.8175 11.593 58.0727 11.3643 58.2782 11.0561C58.487 10.7479 58.5914 10.3551 58.5914 9.87784ZM63.087 8.40625V13H61.9137V5.36364H63.0472V6.55682H63.1467C63.3256 6.16903 63.5974 5.85748 63.962 5.62216C64.3266 5.38352 64.7972 5.2642 65.3739 5.2642C65.891 5.2642 66.3434 5.37027 66.7312 5.58239C67.119 5.79119 67.4206 6.10938 67.636 6.53693C67.8514 6.96117 67.9592 7.49811 67.9592 8.14773V13H66.7859V8.22727C66.7859 7.62737 66.6301 7.16004 66.3185 6.82528C66.007 6.48722 65.5794 6.31818 65.0359 6.31818C64.6613 6.31818 64.3266 6.39938 64.0316 6.56179C63.7399 6.72419 63.5096 6.96117 63.3406 7.27273C63.1715 7.58428 63.087 7.96212 63.087 8.40625ZM73.4242 5.36364V6.35795H69.4668V5.36364H73.4242ZM70.6202 3.53409H71.7935V10.8125C71.7935 11.1439 71.8416 11.3925 71.9377 11.5582C72.0371 11.7206 72.1631 11.83 72.3155 11.8864C72.4713 11.9394 72.6354 11.9659 72.8077 11.9659C72.937 11.9659 73.043 11.9593 73.1259 11.946C73.2087 11.9295 73.275 11.9162 73.3248 11.9062L73.5634 12.9602C73.4838 12.9901 73.3728 13.0199 73.2303 13.0497C73.0878 13.0829 72.9071 13.0994 72.6884 13.0994C72.3569 13.0994 72.0321 13.0282 71.714 12.8857C71.3991 12.7431 71.1373 12.526 70.9284 12.2344C70.723 11.9427 70.6202 11.5748 70.6202 11.1307V3.53409Z" fill="#E6EAF2"/>
</svg>
