<svg width="20" height="20" viewBox="0 0 20 20" fill="none" xmlns="http://www.w3.org/2000/svg">
<path d="M10 10.5C8.92188 10.5 7.9375 9.9375 7.39844 9C6.85938 8.08594 6.85938 6.9375 7.39844 6C7.9375 5.08594 8.92188 4.5 10 4.5C11.0547 4.5 12.0391 5.08594 12.5781 6C13.1172 6.9375 13.1172 8.08594 12.5781 9C12.0391 9.9375 11.0547 10.5 10 10.5ZM8.92188 11.625H11.0547C13.375 11.625 15.25 13.5 15.25 15.8203C15.25 16.1953 14.9219 16.5 14.5469 16.5H5.42969C5.05469 16.5 4.75 16.1953 4.75 15.8203C4.75 13.5 6.60156 11.625 8.92188 11.625Z" fill="#A8BAEF"/>
</svg>
