<svg width="16" height="16" viewBox="0 0 16 16" fill="none" xmlns="http://www.w3.org/2000/svg">
<path d="M8 3.875C9.5625 3.875 10.832 4.59766 11.75 5.45703C12.668 6.29688 13.2734 7.3125 13.5664 8.01562C13.625 8.17188 13.625 8.34766 13.5664 8.50391C13.2734 9.1875 12.668 10.2031 11.75 11.0625C10.832 11.9219 9.5625 12.625 8 12.625C6.41797 12.625 5.14844 11.9219 4.23047 11.0625C3.3125 10.2031 2.70703 9.1875 2.41406 8.50391C2.35547 8.34766 2.35547 8.17188 2.41406 8.01562C2.70703 7.3125 3.3125 6.29688 4.23047 5.45703C5.14844 4.59766 6.41797 3.875 8 3.875ZM5.1875 8.25C5.1875 9.26562 5.71484 10.1836 6.59375 10.6914C7.45312 11.1992 8.52734 11.1992 9.40625 10.6914C10.2656 10.1836 10.8125 9.26562 10.8125 8.25C10.8125 7.25391 10.2656 6.33594 9.40625 5.82812C8.52734 5.32031 7.45312 5.32031 6.59375 5.82812C5.71484 6.33594 5.1875 7.25391 5.1875 8.25ZM8 7C8 6.86328 7.96094 6.74609 7.92188 6.60938C7.88281 6.51172 7.96094 6.375 8.07812 6.375C8.85938 6.41406 9.58203 6.96094 9.79688 7.78125C10.0703 8.77734 9.48438 9.79297 8.46875 10.0664C7.47266 10.3398 6.4375 9.73438 6.18359 8.73828C6.14453 8.60156 6.125 8.46484 6.125 8.34766C6.10547 8.23047 6.24219 8.15234 6.33984 8.19141C6.47656 8.23047 6.59375 8.25 6.75 8.25C7.43359 8.25 8 7.70312 8 7Z" fill="#A8BAEF"/>
</svg>
