<svg width="18" height="18" viewBox="0 0 18 18" fill="none" xmlns="http://www.w3.org/2000/svg">
<path d="M15.0625 13.8438C15.0625 14.0625 14.9375 14.1875 14.7188 14.1875C14.5 14.1875 14.375 14.0312 14.375 13.8438C14.375 13.625 14.5 13.4688 14.7188 13.4688C14.9375 13.4688 15.0625 13.625 15.0625 13.8438ZM5.375 13.4688C5.15625 13.4688 5 13.625 5 13.8438C5 14.0312 5.15625 14.1875 5.375 14.1875C5.5625 14.1875 5.71875 14.0625 5.71875 13.8438C5.6875 13.625 5.5625 13.4688 5.375 13.4688ZM9.03125 13.4688C8.875 13.4688 8.75 13.5625 8.75 13.7188H9.34375C9.3125 13.5625 9.1875 13.4688 9.03125 13.4688ZM12.4062 13.4688C12.1875 13.4688 12.0625 13.625 12.0625 13.8438C12.0625 14.0312 12.1875 14.1875 12.4062 14.1875C12.625 14.1875 12.75 14.0625 12.75 13.8438C12.75 13.625 12.625 13.4688 12.4062 13.4688ZM15.7188 14.2812V14.3125C15.7188 14.3438 15.7188 14.3438 15.7188 14.3438C15.7188 14.375 15.7188 14.375 15.6875 14.375C15.6875 14.375 15.6875 14.4062 15.6562 14.4062C15.6562 14.4062 15.6562 14.4062 15.625 14.4062C15.625 14.4062 15.625 14.4062 15.5938 14.4062C15.5938 14.4062 15.5938 14.375 15.5625 14.375C15.5625 14.375 15.5625 14.375 15.5625 14.3438C15.5312 14.3438 15.5312 14.3438 15.5312 14.3125C15.5312 14.3125 15.5312 14.2812 15.5625 14.2812V14.25C15.5938 14.25 15.5938 14.25 15.5938 14.25C15.625 14.2188 15.625 14.2188 15.625 14.2188C15.6562 14.2188 15.6562 14.2188 15.6562 14.25C15.6875 14.25 15.6875 14.25 15.6875 14.25C15.7188 14.25 15.7188 14.2812 15.7188 14.2812ZM15.6562 14.3438V14.3125C15.6875 14.3125 15.6875 14.3125 15.6875 14.2812C15.6875 14.2812 15.6875 14.2812 15.6562 14.2812C15.6562 14.2812 15.6562 14.25 15.625 14.25H15.5938V14.375H15.625V14.3125L15.6562 14.375H15.6875L15.6562 14.3438ZM18 3.53125V14.5312C18 15.375 17.3125 16.0312 16.5 16.0312H1.5C0.65625 16.0312 0 15.375 0 14.5312V3.53125C0 2.71875 0.65625 2.03125 1.5 2.03125H16.5C17.3125 2.03125 18 2.71875 18 3.53125ZM2 7.90625C2 10.3125 3.9375 12.25 6.3125 12.25C7.15625 12.25 8 11.9688 8.71875 11.5C6.4375 9.65625 6.4375 6.15625 8.71875 4.3125C8 3.84375 7.15625 3.59375 6.3125 3.59375C3.9375 3.59375 2 5.53125 2 7.90625ZM9 11.3125C11.1875 9.59375 11.1875 6.25 9 4.5C6.78125 6.25 6.78125 9.59375 9 11.3125ZM4.53125 13.6875C4.53125 13.4062 4.375 13.25 4.09375 13.2188C3.9375 13.2188 3.78125 13.2812 3.6875 13.4375C3.59375 13.3125 3.46875 13.2188 3.3125 13.2188C3.1875 13.2188 3.0625 13.2812 2.96875 13.4062V13.25H2.71875V14.4062H2.96875C2.96875 13.8125 2.875 13.4688 3.25 13.4688C3.5625 13.4688 3.5 13.7812 3.5 14.4062H3.75C3.75 13.8438 3.6875 13.4688 4.03125 13.4688C4.34375 13.4688 4.28125 13.7812 4.28125 14.4062H4.53125V13.6875ZM5.9375 13.25H5.6875V13.4062C5.625 13.3125 5.5 13.2188 5.34375 13.2188C5 13.2188 4.75 13.5 4.75 13.8438C4.75 14.1875 5 14.4375 5.34375 14.4375C5.5 14.4375 5.625 14.375 5.6875 14.2812V14.4062H5.9375V13.25ZM7.21875 14.0625C7.21875 13.5938 6.5 13.8125 6.5 13.5938C6.5 13.4062 6.875 13.4375 7.0625 13.5625L7.1875 13.3438C6.875 13.1562 6.21875 13.1562 6.21875 13.5938C6.21875 14.0625 6.9375 13.875 6.9375 14.0625C6.9375 14.2812 6.53125 14.25 6.3125 14.0938L6.1875 14.3125C6.53125 14.5312 7.21875 14.5 7.21875 14.0625ZM8.3125 14.3438L8.25 14.1562C8.125 14.2188 7.875 14.2812 7.875 14V13.5H8.28125V13.25H7.875V12.9062H7.59375V13.25H7.375V13.5H7.59375V14C7.59375 14.5625 8.15625 14.4688 8.3125 14.3438ZM8.71875 13.9375H9.59375C9.59375 13.4375 9.34375 13.2188 9.03125 13.2188C8.71875 13.2188 8.46875 13.4688 8.46875 13.8438C8.46875 14.4688 9.1875 14.5938 9.53125 14.2812L9.40625 14.0938C9.15625 14.2812 8.8125 14.2812 8.71875 13.9375ZM10.5625 13.25C10.4375 13.1875 10.2188 13.2188 10.0938 13.4062V13.25H9.84375V14.4062H10.0938V13.75C10.0938 13.4062 10.4062 13.4375 10.5 13.5L10.5625 13.25ZM10.9062 13.8438C10.9062 13.4688 11.2812 13.375 11.5625 13.5625L11.6875 13.375C11.3125 13.0938 10.6562 13.25 10.6562 13.8438C10.6562 14.4688 11.3438 14.5938 11.6875 14.3125L11.5625 14.0938C11.2812 14.3125 10.9062 14.1875 10.9062 13.8438ZM13 13.25H12.75V13.4062C12.4688 13.0625 11.8125 13.25 11.8125 13.8438C11.8125 14.4375 12.5 14.5938 12.75 14.2812V14.4062H13V13.25ZM14.0312 13.25C13.9688 13.2188 13.6875 13.1875 13.5625 13.4062V13.25H13.3125V14.4062H13.5625V13.75C13.5625 13.4062 13.8438 13.4375 13.9688 13.5L14.0312 13.25ZM15.3125 12.8125H15.0625V13.4062C14.8125 13.0625 14.125 13.25 14.125 13.8438C14.125 14.4375 14.8125 14.5938 15.0625 14.2812V14.4062H15.3125V12.8125ZM15.5312 10.4375V10.5938H15.5625V10.4375H15.625H15.4688H15.5312ZM15.75 14.3125V14.2812C15.7188 14.25 15.7188 14.25 15.7188 14.25C15.7188 14.2188 15.6875 14.2188 15.6875 14.2188C15.6562 14.2188 15.6562 14.1875 15.625 14.1875L15.5938 14.2188C15.5625 14.2188 15.5625 14.2188 15.5625 14.25C15.5312 14.25 15.5312 14.25 15.5312 14.2812V14.3125C15.5312 14.3438 15.5312 14.3438 15.5312 14.375C15.5312 14.375 15.5312 14.375 15.5625 14.4062C15.5625 14.4062 15.5625 14.4062 15.5938 14.4375H15.625C15.6562 14.4375 15.6562 14.4375 15.6875 14.4375C15.6875 14.4062 15.7188 14.4062 15.7188 14.4062C15.7188 14.375 15.7188 14.375 15.75 14.375C15.75 14.3438 15.75 14.3438 15.75 14.3125ZM15.8438 10.4375H15.8125L15.75 10.5312L15.7188 10.4375H15.6562V10.5938H15.6875V10.4688L15.75 10.5625H15.7812L15.8125 10.4688V10.5938H15.8438V10.4375ZM16 7.90625C16 5.53125 14.0312 3.59375 11.6562 3.59375C10.8125 3.59375 9.96875 3.84375 9.28125 4.3125C11.5312 6.15625 11.5625 9.65625 9.28125 11.5C9.96875 11.9688 10.8125 12.2188 11.6562 12.2188C14.0312 12.25 16 10.3125 16 7.90625Z" fill="#A8BAEF"/>
</svg>
